<?xml version="1.0" encoding="UTF-8"?>
<svg width="544px" height="646px" viewBox="0 0 544 646" version="1.1" xmlns="http://www.w3.org/2000/svg" xmlns:xlink="http://www.w3.org/1999/xlink">
    <!-- Generator: Sketch 45.1 (43504) - http://www.bohemiancoding.com/sketch -->
    <title>Slice</title>
    <desc>Created with Sketch.</desc>
    <defs></defs>
    <g id="Page-1" stroke="none" stroke-width="1" fill="none" fill-rule="evenodd">
        <g id="old" transform="translate(-614.000000, -782.000000)">
            <g id="Group-2">
                <g id="Königsberg_Stadtplan_1905">
                    <g id="Gesamtes_Bild">
                        <rect id="Hintergrund_1_" stroke="#000000" stroke-width="0.5" fill="#F5F5DC" fill-rule="nonzero" x="1.25" y="60.885" width="1920.844" height="1528.5"></rect>
                        <g id="Wiesen" transform="translate(3.000000, 1041.000000)" stroke="#AED0A0" stroke-width="0.625" fill="#CEE0A7" fill-rule="nonzero">
                            <path d="M1562.271,259.113 L1517.89,247.601 L1251.853,177.037 L1142.574,89.596 L1142.832,159.625 L1261.168,199.834 L1248.25,234.209 L1253.25,244.625 L1300.332,264.625 L1301.168,267.334 L1361.582,299 L1285.057,455.354 C1286.737,456.756 1288.817,458.864 1291.442,460.622 C1296.766,464.194 1300.317,464.788 1303.046,466.567 C1306.927,469.098 1312.669,476.206 1316.157,479.881 L1452,407.334 L1500.93,341.566 L1500.946,305.326 L1528.016,305.248 L1562.271,259.113 Z" id="Shape"></path>
                        </g>
                        <g id="Gras" transform="translate(6.000000, 1052.000000)" stroke="#40A738" stroke-width="0.625">
                            <path d="M1147.316,95.025 L1151.48,95.025 M1149.322,94.85 L1148.394,92.998 M1150.25,92.998 L1149.322,94.85" id="Shape"></path>
                            <path d="M1142.316,107.525 L1146.48,107.525 M1144.322,107.35 L1143.394,105.498 M1145.25,105.498 L1144.322,107.35" id="Shape"></path>
                            <path d="M1147.316,120.025 L1151.48,120.025 M1149.322,119.85 L1148.394,117.998 M1150.25,117.998 L1149.322,119.85" id="Shape"></path>
                            <path d="M1142.316,132.525 L1146.48,132.525 M1144.322,132.35 L1143.394,130.498 M1145.25,130.498 L1144.322,132.35" id="Shape"></path>
                            <path d="M1147.316,145.025 L1151.48,145.025 M1149.322,144.85 L1148.394,142.998 M1150.25,142.998 L1149.322,144.85" id="Shape"></path>
                        </g>
                        <g id="Parks_x2C__Grünanlagen" transform="translate(0.000000, 59.000000)" fill-rule="nonzero" fill="#D3D8A9">
                            <polygon id="Shape" points="957.031 917.18 954.246 933.205 927.307 920.199 929.375 911.701"></polygon>
                            <path d="M911.201,905.605 L907.625,903.419 C907.625,903.419 913.338,894.47 914.215,891.085 C914.611,889.552 914.315,884.745 914.315,884.745 L915.374,882.823 C915.374,882.823 920.87,891.3 918.618,896.995 C917.574,899.639 911.201,905.605 911.201,905.605 Z" id="Shape"></path>
                            <path d="M874.453,733.967 L871.664,732.805 L870.234,735.842 L877.812,739.592 L879.812,735.533 C879.812,735.533 879.582,734.719 879.582,734.33 C879.582,733.832 879.646,733.351 879.768,732.892 L875.86,731.232 L874.453,733.967 Z M881.039,730.549 C882.07,729.416 883.555,728.705 885.207,728.705 C888.316,728.705 890.832,731.223 890.832,734.33 C890.832,736.387 889.73,738.184 888.088,739.164 L885.977,743.537 L893.332,747.248 L903.125,729.955 L878.125,719.541 L875.934,724.043 L878.829,725.295 L877.059,728.893 L881.039,730.549 Z" id="Shape"></path>
                            <g id="Schloss-Grünanlagen" transform="translate(879.000000, 664.000000)">
                                <path d="M71.881,62.145 L57.797,56.813 L57.602,56.92 C57.602,56.92 57.082,57.977 57.29,58.248 C60.376,62.312 70.415,71.686 70.415,71.686 L88.149,79.342 L90.301,74.358 L70.164,65.883 L71.881,62.145 Z" id="Shape"></path>
                                <path d="M51.277,54.842 C50.787,55.955 49.486,56.453 48.375,55.961 C47.262,55.463 46.762,54.166 47.254,53.049 C47.268,53.029 47.279,53.012 47.289,52.994 L31.219,46.326 C31.211,46.597 31.153,46.873 31.031,47.138 C30.539,48.243 29.238,48.74 28.125,48.247 C27.018,47.757 26.51,46.458 27.006,45.347 C27.096,45.15 27.209,44.984 27.336,44.827 L26.863,44.643 L12.976,38.485 C11.835,39.729 9.988,40.171 8.367,39.446 C6.32,38.538 5.406,36.149 6.316,34.114 C7.22,32.087 9.605,31.173 11.644,32.079 C12.05,32.261 12.414,32.503 12.726,32.786 L18.171,20.509 C16.917,19.402 15.648,18.372 14.855,17.728 C13.21,16.392 12.972,16.833 11.105,20.646 C8.457,26.052 3.029,36.72 0.582,42.312 C-0.875,45.646 2.064,48.402 3.812,49.083 C8.082,50.749 21.937,56.478 21.937,56.478 L23.968,51.841 L61.116,68.091 C61.116,68.091 61.389,66.724 60.686,65.749 C59.627,64.28 54.477,57.579 51.758,54.046 L51.469,53.974 C51.469,54.264 51.41,54.564 51.277,54.842 Z" id="Shape"></path>
                            </g>
                        </g>
                        <g id="Friedhöfe" transform="translate(7.000000, 165.000000)"></g>
                        <g id="Bäume" transform="translate(4.000000, 61.000000)" fill-rule="nonzero" fill="#35A966">
                            <g id="Baum_168_" transform="translate(939.000000, 917.000000)">
                                <path d="M2.76,1.598 C2.76,2.289 2.198,2.848 1.51,2.848 C0.819,2.848 0.26,2.289 0.26,1.598 C0.26,0.907 0.819,0.348 1.51,0.348 C2.197,0.348 2.76,0.906 2.76,1.598 Z" id="Shape"></path>
                            </g>
                            <g id="Baum_169_" transform="translate(943.000000, 918.000000)">
                                <path d="M3.312,1.855 C3.312,2.544 2.75,3.105 2.062,3.105 C1.371,3.105 0.812,2.544 0.812,1.855 C0.812,1.164 1.371,0.605 2.062,0.605 C2.75,0.605 3.312,1.164 3.312,1.855 Z" id="Shape"></path>
                            </g>
                            <g id="Baum_170_" transform="translate(906.000000, 897.000000)">
                                <circle id="Oval" cx="2.033" cy="1.541" r="1.25"></circle>
                            </g>
                            <g id="Baum_171_" transform="translate(909.000000, 897.000000)">
                                <path d="M3.383,2.217 C3.383,2.908 2.821,3.467 2.133,3.467 C1.442,3.467 0.883,2.908 0.883,2.217 C0.883,1.528 1.442,0.967 2.133,0.967 C2.82,0.967 3.383,1.527 3.383,2.217 Z" id="Shape"></path>
                            </g>
                            <g id="Baum_172_" transform="translate(912.000000, 891.000000)">
                                <path d="M2.807,2.115 C2.807,2.804 2.245,3.365 1.557,3.365 C0.866,3.365 0.307,2.804 0.307,2.115 C0.307,1.424 0.866,0.865 1.557,0.865 C2.244,0.865 2.807,1.424 2.807,2.115 Z" id="Shape"></path>
                            </g>
                        </g>
                        <g id="Gewässer" transform="translate(3.000000, 83.000000)" stroke="#2371B3" stroke-width="0.625" fill="#73C6D2" fill-rule="nonzero">
                            <path d="M879.5,774.186 C872.564,769.696 857.498,761.557 850.645,758.084 C850.565,758.043 850.469,757.984 850.383,757.936 L843.321,771.381 C844.438,772.018 845.163,772.438 845.163,772.438 L862.864,783.161 L880.223,796.265 L904.733,814.988 L905.622,815.771 L922.31,805.279 C911.053,798.324 890.602,781.373 879.5,774.186 Z" id="Shape"></path>
                            <path d="M770.846,918.982 L811.821,933.582 L813.573,934.416 L824.616,910.764 C824.364,910.725 824.106,910.688 823.887,910.643 C812.391,908.288 790.004,900.916 779.125,896.514 C778.949,896.444 778.742,896.354 778.545,896.266 L768.566,918.198 L770.846,918.982 Z" id="Shape"></path>
                            <path d="M1080.738,1276.439 C1073.152,1272.994 1060.183,1262.154 1053.562,1257.154 C1045.906,1251.373 1031.509,1234.849 1031.097,1234.435 C1026.513,1229.826 1014.88,1212.593 1010.661,1203.923 C1009.038,1200.587 1005.835,1193.972 1004.528,1190.396 C1002.257,1184.181 1001.083,1173.677 1006.376,1164.519 C1006.765,1163.849 1006.13,1162.044 1007.132,1160.236 C1009.429,1156.076 1013.804,1148.877 1014.968,1145.591 C1016.433,1141.46 1015.943,1137.435 1018.406,1128.403 C1019.344,1124.965 1020.025,1110.688 1021.396,1105.007 C1022.314,1101.206 1023.847,1097.423 1026.113,1090.095 C1026.855,1087.697 1026.855,1081.407 1029.199,1074.89 C1029.881,1072.997 1031.758,1067.331 1031.758,1067.331 C1031.758,1067.331 1034.754,1032.702 1035.586,1021.401 C1036.035,1015.299 1043.092,1017.063 1043.092,1017.063 C1043.092,1017.063 1043.26,1013.954 1042.168,1013.284 C1040.311,1012.141 1037.582,1010.399 1036.875,1009.585 C1035.018,1007.442 1031.84,1003.128 1030.406,1000.679 C1026.57,994.122 1022.342,979.324 1020.515,971.95 C1018.486,963.764 1015.995,947.483 1014.499,939.184 C1014.378,938.504 1014.229,937.711 1014.067,936.84 L991.247,933.598 C991.222,933.852 991.202,934.088 991.196,934.299 C991.124,936.256 991.503,940.279 991.196,942.129 C990.346,947.233 987.792,952.68 979.452,952.338 C977.614,952.262 972.134,951.488 972.134,951.488 C972.134,951.488 963.847,949.808 961.241,948.763 C960.288,948.38 958.61,947.13 957.665,946.722 C953.253,944.818 939.284,941.105 939.284,941.105 L895.712,929.019 C895.712,929.019 873.075,923.576 866.097,921.703 C861.997,920.605 855.349,916.211 850.269,914.723 C846.359,913.578 840.191,912.684 834.269,911.662 C834.236,911.654 834.187,911.652 834.152,911.644 L822.261,938.548 L822.937,938.87 L886.999,961.37 L967.235,985.854 C967.235,985.854 977.758,986.737 980.893,988.209 C987.936,991.525 989.655,1001.682 989.655,1001.682 C989.655,1001.682 997.155,1002.932 999.731,1018.823 C1000.151,1021.409 1000.342,1026.839 1000.241,1029.296 C1000.145,1031.605 998.94,1037.886 998.94,1037.886 C998.94,1037.886 1000.934,1039.029 1000.672,1041.9 C1000.416,1044.718 998.205,1045.787 998.205,1045.787 C998.205,1045.787 992.935,1090.277 990.31,1104.535 C989.759,1107.525 985.712,1112.795 983.091,1114.34 C981.257,1115.418 974.653,1115.434 974.653,1115.434 L973.403,1119.496 C973.403,1119.496 979.184,1118.871 982.776,1125.728 C985.182,1130.328 981.413,1139.453 978.09,1142.464 C973.09,1146.995 964.918,1157.935 962.053,1164.347 C959.573,1169.894 959.504,1182.31 960.834,1188.042 C961.783,1192.136 971.252,1211.554 974.768,1219.448 C978.08,1226.889 976.106,1235.835 976.106,1235.835 C976.106,1235.835 981.292,1239.472 982.69,1240.939 C983.899,1242.207 986.544,1246.765 986.544,1246.765 C986.544,1246.765 1017.175,1271.613 1027.517,1279.732 C1036.499,1286.785 1053.822,1301.929 1063.779,1307.521 C1064.968,1308.187 1066.416,1308.88 1068.011,1309.589 L1080.939,1276.517 C1080.871,1276.492 1080.793,1276.467 1080.738,1276.439 Z" id="Shape"></path>
                            <path d="M1358.375,1472.535 L1358.375,1471.121 C1358.375,1471.121 1354.49,1467.652 1349.609,1463.935 C1346.918,1461.884 1343.929,1459.761 1341.111,1458.101 C1336.884,1455.611 1342.486,1453.622 1343.658,1452.867 C1349.002,1449.418 1366.299,1441.263 1366.299,1441.263 L1360.637,1436.876 L1337.291,1449.47 L1333.611,1453.433 C1333.611,1453.433 1320.429,1442.253 1316.689,1438.447 C1316.527,1438.283 1316.332,1438.064 1316.156,1437.881 C1312.668,1434.205 1306.926,1427.098 1303.045,1424.567 C1300.316,1422.788 1296.766,1422.194 1291.441,1418.622 C1288.816,1416.864 1286.736,1414.757 1285.056,1413.354 C1284.613,1412.983 1284.189,1412.647 1283.798,1412.397 C1279.247,1409.461 1269.224,1403.342 1265.687,1400.512 C1261.046,1396.801 1252.544,1388.455 1247.857,1384.803 C1239.226,1378.08 1211.775,1360.041 1211.775,1360.041 C1211.775,1360.041 1204.841,1356.078 1206.963,1349.852 C1209.379,1342.768 1214.961,1321.649 1214.961,1321.649 L1231.445,1275.497 L1231.445,1268.903 L1234.742,1266.077 L1247.928,1220.395 L1238.981,1201.553 L1230.504,1198.729 L1225.322,1201.084 L1205.07,1194.49 L1196.123,1220.394 L1238.037,1236.878 L1230.031,1264.192 L1224.381,1271.727 L1207.389,1327.209 L1200.879,1344.897 C1200.879,1344.897 1200.313,1350.133 1194.746,1346.284 C1183.779,1338.698 1151.978,1317.743 1139.449,1307.278 C1133.189,1302.048 1132.625,1294.34 1135.75,1285.903 C1139.346,1276.194 1146.736,1247.436 1146.736,1247.436 C1146.736,1247.436 1146.207,1241.278 1146.648,1239.291 C1147.154,1237.018 1150.07,1233.137 1150.679,1230.887 C1152.652,1223.602 1158.222,1201.655 1158.222,1201.655 L1154.195,1200.112 C1154.195,1200.112 1130.601,1277.436 1127.789,1286.186 C1124.246,1297.209 1115.967,1294.114 1112.764,1291.979 C1106.688,1287.934 1089.657,1278.559 1089.657,1278.559 C1089.657,1278.559 1089.333,1278.498 1088.819,1278.401 L1075.145,1312.524 C1081.862,1315.157 1089.211,1317.852 1093.454,1320.237 C1103.161,1325.7 1121.013,1339.186 1129.718,1346.137 C1138.78,1353.373 1155.704,1369.274 1164.57,1376.75 C1181.17,1390.746 1215.545,1411.789 1222.968,1417.252 C1225.017,1418.762 1234.919,1424.496 1218.462,1426.371 C1213.064,1426.986 1166.794,1428.871 1166.794,1428.871 L1166.794,1437.828 L1226.169,1435.539 L1243.22,1433.266 C1243.22,1433.266 1260.05,1447.137 1265.357,1452.104 C1269.673,1456.141 1277.4,1465.159 1281.841,1469.059 C1286.779,1473.399 1301.306,1483.801 1305.333,1486.668 C1306.001,1487.145 1383.724,1486.816 1383.724,1486.816 L1383.423,1486.4 L1358.375,1472.535 Z" id="Shape"></path>
                            <path d="M840.129,749.447 C840.129,749.447 826.611,740.717 810.371,746.537 C803.027,749.168 794.66,757.289 787.275,766.439 C781.334,773.798 776.058,782.021 772.257,787.113 C768.818,791.724 763.339,801.898 760.484,806.892 C757.082,812.839 750.254,824.734 747.296,830.913 C745.944,833.739 743.327,840.554 742.831,842.622 C738.249,861.79 719.081,861.79 697.831,859.079 C687.448,857.757 661.64,854.306 660.331,854.079 C646.495,851.675 629.341,847.341 621.999,845.54 C610.956,842.829 606.581,835.122 606.581,835.122 C606.581,835.122 598.911,837.819 583.042,833.454 C571.97,830.407 532.265,818.421 532.265,818.421 L530.417,818.101 C530.417,818.101 528.644,818.314 528.483,818.802 C525.465,828.015 515.921,854.847 515.921,854.847 L525.944,857.286 L525.003,860.112 C525.003,860.112 549.878,865.725 553.407,866.661 C556.886,867.581 593.292,878.479 593.292,878.479 C593.292,878.479 622.185,886.2 631.911,888.368 C641.151,890.43 659.714,894.317 669.116,895.434 C677.665,896.452 694.927,896.707 703.511,897.207 C713.407,897.779 729.208,902.74 729.208,902.74 L757.036,914.213 L759.899,915.201 L770.995,892.453 C770.983,892.445 770.964,892.435 770.952,892.428 C767.927,890.809 761.911,887.492 759.038,885.619 C757.839,884.838 754.442,882.215 754.442,882.215 L756.655,877.789 L757.165,874.215 L766.866,845.453 L779.292,816.348 L798.187,783.328 C798.187,783.328 805.437,773.957 807.718,770.734 C815.546,759.67 826.099,762.39 831.546,764.945 C831.972,765.144 832.503,765.41 833.093,765.716 L841.013,750.275 C840.469,749.77 840.129,749.447 840.129,749.447 Z" id="Shape"></path>
                            <path d="M1000.91,845.621 C998.174,845.848 996.435,845.984 996.435,845.984 L988.898,844.099 C988.898,844.099 966.75,833.609 959.699,829.499 C951.521,824.733 936.441,813.239 928.242,808.364 L910.127,819.747 L910.52,820.093 L922.094,829.282 L940.817,842.22 C940.817,842.22 948.465,846.837 951.028,848.347 C955.266,850.847 963.622,856.077 968.051,858.218 C970.559,859.431 975.887,861.157 978.43,862.302 C980.455,863.212 984.473,865.386 985.922,867.068 C988.318,869.857 991.158,876.908 991.879,880.513 C992.621,884.226 991.598,891.876 991.539,895.661 C991.463,900.513 991.256,910.216 991.367,915.065 C991.441,918.176 992.156,924.381 992.049,927.489 C992.039,927.796 992.002,928.165 991.957,928.555 L1012.978,931.176 C1010.91,920.563 1007.937,905.903 1007.937,905.903 L1011.035,903.909 L1008.211,874.239 C1008.211,874.239 1008.414,874.233 1008.785,874.225 L1007.973,861.272 L1000.91,845.621 Z" id="Shape"></path>
                            <path d="M1865.047,1044.107 C1862.504,1042.642 1854.227,1038.99 1854.227,1038.99 L1896.789,986.998 L1896.803,879.478 C1896.803,879.478 1890.908,879.097 1889.746,877.884 C1887.635,875.677 1889.508,867.808 1889.508,867.808 L1881.541,864.927 C1881.541,864.927 1874.727,883.642 1874.248,887.478 C1873.834,890.804 1883.316,961.996 1883.316,961.996 L1893.298,963.244 L1885.14,974.088 L1887.876,978.791 L1842.417,1033.459 C1842.417,1033.459 1777.917,1007.115 1755.94,999.932 C1746.004,996.686 1716.063,988.682 1716.063,988.682 L1667.555,976.909 C1667.555,976.909 1628.278,966.854 1615.541,962.417 C1607.016,959.444 1582.311,948.181 1582.311,948.181 L1553.112,935.464 L1491.885,914.741 L1430.19,899.671 C1430.19,899.671 1392.895,890.857 1380.081,887.948 C1376.542,887.145 1357.679,883.694 1354.245,882.522 C1332.673,875.161 1318.825,872.465 1306.97,870.768 C1302.449,870.122 1290.046,869.862 1287.851,869.477 C1285.242,869.018 1279.714,867.807 1273.253,866.762 C1258.339,864.352 1238.511,861.522 1238.511,861.522 L1221.374,859.655 C1221.374,859.655 1205.874,859.204 1200.749,858.561 C1193.741,857.682 1179.983,854.37 1173.044,853.049 C1166.452,851.793 1153.192,849.678 1146.53,848.873 C1132.487,847.174 1090.28,844.811 1090.28,844.811 L1061.899,843.159 C1061.899,843.159 1051.508,844.149 1048.239,843.159 C1045.8,842.421 1040.28,837.78 1040.28,837.78 C1040.28,837.78 1037.124,841.923 1035.524,842.216 C1031.491,842.954 1017.391,844.23 1007.284,845.089 L1013.973,860.554 L1015.043,874.107 C1029.92,873.837 1065.022,873.326 1078.717,874.187 C1084.553,874.554 1096.139,876.404 1101.93,877.066 C1106.19,877.55 1114.748,878.162 1119.03,878.406 C1125.673,878.785 1139.592,878.398 1146.124,879.406 C1157.968,881.234 1180.272,887.793 1192.155,889.344 C1195.749,889.813 1231.843,892.469 1231.843,892.469 C1231.843,892.469 1248.591,894.237 1253.363,895.311 C1258.662,896.504 1269.332,899.192 1274.675,900.35 C1284.155,902.403 1304.644,905.774 1312.78,907.325 C1317.378,908.202 1322.341,909.778 1329.704,911.458 C1341.237,914.091 1369.431,921.028 1379.821,923.858 C1400.389,929.458 1461.745,946.768 1461.745,946.768 L1482.468,953.834 L1493.769,959.484 L1512.138,964.666 L1529.091,971.728 L1532.913,974.488 L1537.569,977.851 L1560.174,978.324 L1573.362,982.09 C1573.362,982.09 1583.776,985.76 1583.251,988.684 C1582.937,990.438 1582.505,992.735 1581.976,995.469 C1581.769,996.535 1581.55,997.664 1581.314,998.867 C1571.699,1047.855 1538.242,1205.748 1538.242,1205.748 L1557.74,1211.26 L1560.308,1211.989 L1560.328,1211.942 L1586.025,1149.596 L1590.134,1152.18 L1603.032,1124.321 C1603.032,1124.321 1601.852,1123.741 1599.932,1122.794 C1591.584,1118.673 1569.227,1107.577 1568.981,1106.835 C1568.42,1105.144 1582.256,1038.718 1587.241,1015.378 C1588.114,1011.286 1588.206,1007.792 1588.432,1007.052 C1589.522,1003.507 1586.786,999.089 1586.786,996.659 C1586.786,994.718 1587.96,990.098 1587.96,990.098 C1587.96,990.098 1600.038,992.668 1603.974,993.866 C1606.861,994.743 1612.369,997.309 1615.279,998.104 C1623.121,1000.247 1646.793,1003.252 1646.793,1003.252 C1646.793,1003.252 1657.158,1006.084 1660.336,1007.211 C1668.209,1010.004 1683.19,1017.486 1691.104,1020.24 C1696.958,1022.275 1709.245,1024.406 1715.124,1026.359 C1718.761,1027.568 1725.675,1030.943 1729.294,1032.211 C1736.001,1034.559 1756.587,1040.127 1756.587,1040.127 L1795.187,1059.328 L1796.126,1059.844 L1819.188,1072.469 C1819.188,1072.469 1840.208,1081.703 1845.126,1083.875 C1851.845,1086.844 1865.778,1090.035 1871.532,1092.625 C1874.657,1094.031 1877.243,1096.455 1879.657,1098.406 C1883.516,1101.527 1896.356,1115.283 1896.356,1115.283 L1896.879,1064.939 C1896.879,1064.938 1872.902,1048.627 1865.047,1044.107 Z" id="Shape"></path>
                        </g>
                        <g id="Sonstige_Bildelemente" transform="translate(80.000000, 490.000000)">
                            <g id="Pfeil_5_" transform="translate(1007.000000, 451.000000)">
                                <g id="Group">
                                    <path d="M5.654,2.664 L50.559,6.305" id="Shape" stroke="#000000" stroke-width="0.625"></path>
                                    <path d="M6.772,2.755 L8.32,0.62 L8.247,0.563 L4.47,1.72 C3.172,1.897 1.874,2.074 0.576,2.251 C1.828,2.635 3.081,3.019 4.333,3.402 L7.875,5.153 L7.955,5.121 L6.772,2.755 Z" id="Shape" fill="#000000" fill-rule="nonzero"></path>
                                </g>
                            </g>
                            <g id="Pfeil_4_" transform="translate(556.000000, 459.000000)">
                                <g id="Group">
                                    <path d="M5.838,2.576 L44.43,9.121" id="Shape" stroke="#000000" stroke-width="0.625"></path>
                                    <path d="M6.944,2.764 L8.671,0.773 L8.604,0.711 L4.74,1.535 C3.432,1.598 2.124,1.662 0.815,1.725 C2.029,2.216 3.244,2.707 4.458,3.2 L7.834,5.252 L7.916,5.227 L6.944,2.764 Z" id="Shape" fill="#000000" fill-rule="nonzero"></path>
                                </g>
                            </g>
                            <g id="Pfeil_3_" transform="translate(926.000000, 648.000000)">
                                <g id="Group">
                                    <path d="M10.564,5.757 L0.875,57.623" id="Shape" stroke="#000000" stroke-width="0.625"></path>
                                    <path d="M10.358,6.859 L12.32,8.619 L12.384,8.553 L11.624,4.676 C11.583,3.366 11.541,2.058 11.499,0.748 C10.987,1.954 10.476,3.16 9.964,4.365 L7.857,7.707 L7.88,7.79 L10.358,6.859 Z" id="Shape" fill="#000000" fill-rule="nonzero"></path>
                                </g>
                            </g>
                            <g id="Fähre_6_" transform="translate(653.000000, 451.000000)" stroke="#000000" stroke-width="0.5">
                                <path d="M11.365,8.188 C10.867,9.042 12.744,10.917 13.539,11.502 C14.439,12.178 17.141,13.648 17.848,12.77 C18.524,11.948 16.332,9.784 15.225,8.983 C13.99,8.084 11.863,7.33 11.365,8.188 Z" id="Fähre_7_"></path>
                                <g id="Group">
                                    <path d="M11.316,8.072 L10.301,7.344" id="Shape"></path>
                                    <path d="M8.527,6.071 L2.32,1.617" id="Shape" stroke-dasharray="2.1828,2.1828"></path>
                                    <path d="M1.434,0.98 L0.418,0.252" id="Shape"></path>
                                </g>
                                <g id="Group" transform="translate(17.000000, 12.000000)">
                                    <path d="M0.898,0.797 L1.927,1.508" id="Shape"></path>
                                    <path d="M4.273,3.132 L7.795,5.568" id="Shape" stroke-dasharray="2.8544,2.8544"></path>
                                    <path d="M8.968,6.381 L9.996,7.092" id="Shape"></path>
                                </g>
                            </g>
                            <g id="Fähre_5_" transform="translate(921.000000, 608.000000)" stroke="#000000" stroke-width="0.5">
                                <path d="M21.086,28.213 C21.979,27.131 19.789,24.229 18.793,23.221 C17.662,22.086 14.156,19.475 13.012,20.592 C11.928,21.61 14.477,25.106 15.887,26.473 C17.459,27.848 20.223,29.252 21.086,28.213 Z" id="Schiff_1_"></path>
                                <path d="M21.496,28.771 C26.82,32.091 34.992,35.916 34.992,35.916" id="Shape" stroke-dasharray="2.5"></path>
                                <path d="M0.963,0.729 C0.963,0.729 7.418,12.006 12.945,19.905" id="Shape" stroke-dasharray="2.5"></path>
                            </g>
                        </g>
                        <g id="Grabkreuze_und_-steine" transform="translate(13.000000, 169.000000)"></g>
                        <g id="Wiesen-Namen" transform="translate(44.000000, 1132.000000)"></g>
                        <g id="Gebäude" transform="translate(3.000000, 60.000000)" stroke="#E7511F" fill="#F2C4A2" fill-rule="nonzero">
                            <path d="M1182.725,1414.729 L1139.395,1449.391 L1132.022,1440.092 L1135.407,1436.988 L1067.841,1363.258 L1076.903,1341.291 L1085.137,1344.617 L1086.846,1340.39 C1086.846,1340.39 1095.11,1344.427 1112.844,1357.056 C1132.627,1371.146 1141.559,1380.495 1157.965,1394.744 C1165.445,1401.24 1182.725,1414.729 1182.725,1414.729 Z" id="Shape" stroke-width="0.25"></path>
                            <path d="M931.793,1287.5 C931.793,1287.5 956.676,1287.721 964.969,1287.811 C974.5,1287.916 988.875,1295.78 988.875,1295.78 L1026.687,1324.999 L1014.812,1354.843 L957.207,1331.251 C957.207,1331.251 939.906,1326.015 933.25,1316.876 C928.773,1310.73 930.543,1298.96 930.543,1298.96 L931.793,1287.5 Z" id="Shape" stroke-width="0.25"></path>
                            <polygon id="Shape" stroke-width="0.25" points="844.758 1285.623 870.816 1286.627 865.527 1331.174 852.564 1329.74 850.977 1342.965 863.922 1344.709 856.621 1406.174 830.777 1403.217"></polygon>
                            <polygon id="Shape" stroke-width="0.25" points="821.412 1402.15 780.768 1396.395 792.938 1284.061 837.938 1285.623"></polygon>
                            <polygon id="Shape" stroke-width="0.25" points="813.141 1400.998 795.793 1398.516 800.809 1362.793 818.17 1365.221"></polygon>
                            <path d="M637.832,1207.08 C637.832,1207.08 664.033,1212.518 672.73,1214.166 C707.886,1220.826 813.25,1240.311 813.25,1240.311 L808.055,1277.928 C808.055,1277.928 700.664,1270.436 664.852,1268.475 C650.141,1267.67 605.957,1266.873 605.957,1266.873 L637.832,1207.08 Z" id="Shape" stroke-width="0.25"></path>
                            <path d="M712.234,712.369 L654.031,684.488 L645.369,712.592 C645.369,712.592 666.201,718.094 673.914,720.365 C680.723,722.369 703.461,729.695 703.461,729.695 L712.234,712.369 Z" id="Shape" stroke-width="0.25"></path>
                            <polygon id="Shape" stroke-width="0.25" points="638.512 738.029 626.689 784.58 668.668 794.893 671.379 792.07 695.148 808.6 711.678 789.842 680.664 772.385 690.322 753.631"></polygon>
                            <polygon id="Shape" stroke-width="0.25" points="626.689 784.58 613.043 837.656 677.107 840.055 694.086 814.166 668.668 794.893"></polygon>
                            <polygon id="Shape" stroke-width="0.25" points="986.141 948.482 980.719 947.35 980.963 919.674 986.141 919.754"></polygon>
                            <polygon id="Shape" stroke-width="0.25" points="984.539 954.531 982.594 971.311 951.646 962.721 952.988 955.875 977.895 962.789 978.766 952.986"></polygon>
                            <polygon id="Shape" stroke-width="0.25" points="972.703 947.107 972 956.561 953.953 951.482 955.594 939.607"></polygon>
                            <polygon id="Shape" stroke-width="0.25" points="973.25 925.311 972.156 942.498 956.219 934.842 958.25 922.342"></polygon>
                            <polygon id="Shape" stroke-width="0.25" points="947.156 954.842 945.75 960.936 911.219 950.779 913.25 944.842"></polygon>
                            <polygon id="Shape" stroke-width="0.25" points="947.625 949.373 950.125 937.654 919.344 924.061 914.344 939.529"></polygon>
                            <polygon id="Shape" stroke-width="0.25" points="906.219 943.23 904.412 949.324 883.865 943.23 885.447 936.682"></polygon>
                            <polygon id="Shape" stroke-width="0.25" points="930.672 819.92 928.094 823.514 904.812 807.967 907.234 804.529"></polygon>
                            <polygon id="Shape" stroke-width="0.25" points="908.023 937.359 914.346 921.104 900.574 914.104 891.543 932.393"></polygon>
                            <polygon id="Shape" stroke-width="0.25" points="875.285 931.715 872.352 939.166 859.707 934.648 863.545 927.424"></polygon>
                            <polygon id="Shape" stroke-width="0.25" points="880.93 927.652 886.123 930.135 897.863 906.881 892.219 903.945"></polygon>
                            <polygon id="Shape" stroke-width="0.25" points="875.514 925.619 866.031 921.779 877.77 897.398 886.803 901.236"></polygon>
                            <polygon id="Shape" stroke-width="0.25" points="889.736 895.365 882.061 891.525 894.93 864.662 901.477 870.756"></polygon>
                            <polygon id="Shape" stroke-width="0.25" points="857.451 924.941 853.16 932.846 836.904 927.424 840.291 919.072"></polygon>
                            <polygon id="Shape" stroke-width="0.25" points="859.707 919.072 841.646 912.299 853.838 886.785 872.352 894.688"></polygon>
                            <polygon id="Shape" stroke-width="0.25" points="874.609 887.689 857.9 879.561 870.996 852.693 887.93 860.82"></polygon>
                            <polygon id="Shape" stroke-width="0.25" points="898.09 839.824 891.092 854.049 873.932 845.018 882.285 829.215"></polygon>
                            <polygon id="Shape" stroke-width="0.25" points="877.32 821.988 868.062 840.049 852.936 832.6 862.418 813.408"></polygon>
                            <polygon id="Shape" stroke-width="0.25" points="848.645 839.148 864.9 847.049 851.129 875.496 834.873 867.369"></polygon>
                            <polygon id="Shape" stroke-width="0.25" points="829.002 917.039 825.844 924.264 782.041 911.395 785.879 904.17"></polygon>
                            <polygon id="Shape" stroke-width="0.25" points="808.682 901.01 789.717 894.912 806.199 861.271 823.584 869.852"></polygon>
                            <polygon id="Shape" stroke-width="0.25" points="827.648 864.434 810.037 855.855 824.035 826.729 842.098 835.309"></polygon>
                            <polygon id="Shape" stroke-width="0.25" points="799.426 851.113 780.688 842.535 794.008 815.666 812.295 824.473"></polygon>
                            <path d="M796.266,857.887 L770.528,910.268 L764.432,907.332 L765.336,904.623 L759.463,896.719 C759.463,896.719 767.037,873.526 769.625,866.694 C771.611,861.446 777.752,848.405 777.752,848.405 L796.266,857.887 Z" id="Shape" stroke-width="0.25"></path>
                            <polygon id="Shape" stroke-width="0.25" points="855.645 807.312 845.26 828.986 827.422 820.408 837.133 798.961"></polygon>
                            <polygon id="Shape" stroke-width="0.25" points="828.551 792.637 817.488 813.861 804.168 807.764 809.586 796.479 812.523 798.281 816.133 791.057 822.908 794.219 824.713 790.381"></polygon>
                            <polygon id="Shape" stroke-width="0.25" points="939.484 885.369 927.439 889.795 899.949 861.277 898.918 857.057 905.922 843.26 912.613 848.922 907.877 857.467 932.586 881.662 934.441 880.016"></polygon>
                            <polygon id="Shape" stroke-width="0.25" points="1008.391 929.119 1013.541 925.855 1019.908 955.08 1013.494 954.459"></polygon>
                            <polygon id="Shape" stroke-width="0.25" points="1029.248 920.338 1044.107 1013.732 1055.145 1040.477 1090.807 1035.809 1089.107 986.988 1082.74 936.043 1064.484 937.318 1063.211 933.072 1085.182 931.646 1084.535 920.203"></polygon>
                            <polygon id="Shape" stroke-width="0.25" points="1031.373 901.658 1021.607 901.658 1021.607 907.176 1013.117 907.176 1012.27 902.084 1018.25 902.186 1018.172 897.186 1031.373 896.988"></polygon>
                            <polygon id="Shape" stroke-width="0.25" points="1037.314 905.479 1032.633 905.184 1032.645 908.875 1027.998 908.828 1028.094 914.217 1052.859 914.686 1052.859 904.139 1043.383 903.789 1043.383 908.287 1039.066 908.287"></polygon>
                            <polygon id="Shape" stroke-width="0.25" points="1081.727 898.83 1068.773 898.83 1068.773 901.854 1078.057 902.068 1078.488 908.979 1068.99 908.76 1069.205 915.236 1081.943 915.236"></polygon>
                            <polygon id="Shape" stroke-width="0.25" points="1064.672 908.979 1064.889 915.021 1056.684 914.59 1056.469 908.979"></polygon>
                            <polygon id="Shape" stroke-width="0.25" points="1086.477 901.422 1086.477 911.354 1092.738 911.568 1092.523 901.854"></polygon>
                            <polygon id="Shape" stroke-width="0.25" points="1092.09 934.236 1097.057 933.805 1098.566 948.484 1102.668 948.484 1110.225 1006.129 1111.951 1033.33 1098.781 1034.842 1097.057 988.641"></polygon>
                            <polygon id="Shape" stroke-width="0.25" points="1107.85 945.895 1173.482 956.904 1168.949 1016.707 1118.213 1028.367 1116.27 1005.482"></polygon>
                            <polygon id="Shape" stroke-width="0.25" points="1175.426 924.955 1173.914 947.838 1107.203 936.826 1106.123 929.703 1090.361 929.488 1089.715 919.988 1147.141 920.42"></polygon>
                            <polygon id="Shape" stroke-width="0.25" points="1167.688 1026.35 1119.082 1036.725 1118.268 1045.117 1163.143 1070.295"></polygon>
                            <polygon id="Shape" stroke-width="0.25" points="1103.346 1044.924 1103.346 1048.42 1110.34 1048.072 1110.457 1044.342"></polygon>
                            <path d="M1043.355,1040.729 C1042.417,1040.417 1036.767,1039.545 1036.48,1042.813 C1035.957,1048.751 1033.98,1070.625 1033.98,1070.625 L1049.082,1071.041 L1049.918,1044.791 L1045.957,1041.146 C1045.957,1041.146 1043.98,1040.936 1043.355,1040.729 Z" id="Shape" stroke-width="0.25"></path>
                            <polygon id="Shape" stroke-width="0.25" points="1054.707 1055 1054.082 1066.562 1062 1066.666 1062.312 1061.979 1067.73 1061.875 1067.73 1058.334 1072 1058.334 1072.105 1055.104"></polygon>
                            <polygon id="Shape" stroke-width="0.25" points="667.023 928.037 675.48 928.389 674.07 947.771 665.613 946.715"></polygon>
                            <polygon id="Shape" stroke-width="0.25" points="696.977 930.152 706.139 931.209 706.139 950.236 696.273 949.533"></polygon>
                            <polygon id="Shape" stroke-width="0.25" points="712.832 932.617 722.348 934.029 721.996 951.648 712.48 950.592"></polygon>
                            <polygon id="Shape" stroke-width="0.25" points="730.453 936.85 750.537 944.248 742.785 961.865 726.223 955.172"></polygon>
                            <polygon id="Shape" stroke-width="0.25" points="739.615 970.322 727.986 996.4 710.719 989.352 721.289 962.924"></polygon>
                            <polygon id="Shape" stroke-width="0.25" points="686.053 967.506 681.824 977.371 658.918 967.857 662.441 959.752"></polygon>
                            <polygon id="Shape" stroke-width="0.25" points="657.156 957.99 653.281 967.506 602.537 948.123 604.652 944.248 645.883 958.693 647.643 954.82"></polygon>
                            <polygon id="Shape" stroke-width="0.25" points="723.758 1004.154 677.596 985.477 641.652 1065.818 687.816 1086.609"></polygon>
                            <polygon id="Shape" stroke-width="0.25" points="669.842 984.771 634.605 1062.646 617.691 1054.541 652.576 978.428"></polygon>
                            <polygon id="Shape" stroke-width="0.25" points="708.957 1078.857 702.967 1092.246 733.623 1104.229 738.91 1089.076"></polygon>
                            <polygon id="Shape" stroke-width="0.25" points="744.547 1092.951 740.318 1105.287 766.395 1114.096 791.414 1114.801 792.822 1104.58"></polygon>
                            <polygon id="Shape" stroke-width="0.25" points="811.148 1047.848 796.348 1113.744 840.043 1115.504 852.375 1050.312"></polygon>
                            <polygon id="Shape" stroke-width="0.25" points="579.986 1034.104 586.68 1020.01 571.881 1012.611 597.252 957.637 644.824 975.607 610.994 1051.018"></polygon>
                            <polygon id="Shape" stroke-width="0.25" points="635.662 1077.801 614.871 1123.961 657.861 1144.752 682.881 1098.238"></polygon>
                            <polygon id="Shape" stroke-width="0.25" points="695.215 1101.055 687.109 1117.617 718.473 1131.01 726.223 1113.037"></polygon>
                            <polygon id="Shape" stroke-width="0.25" points="629.672 1074.979 612.051 1066.875 591.965 1113.037 608.527 1120.789"></polygon>
                            <polygon id="Shape" stroke-width="0.25" points="998.254 1042.516 984.875 1051.799 985.695 1061.355 981.055 1085.111 994.979 1086.475 999.348 1050.705"></polygon>
                            <path d="M969.859,1057.807 C969.859,1057.807 930.25,1035.887 916.07,1030.231 C904.406,1025.581 867.468,1015.758 867.468,1015.758 L868.833,1007.293 C868.833,1007.293 912.233,1020.359 926.171,1026.133 C951.63,1036.68 950.603,1037.643 976.958,1051.799 L969.859,1057.807 Z" id="Shape" stroke-width="0.25"></path>
                            <path d="M980.781,1049.068 L997.437,1037.326 L977.232,1010.842 L967.128,1010.569 L876.753,982.721 L873.747,1001.832 C873.747,1001.832 924.577,1019.197 940.643,1026.68 C951.215,1031.602 980.781,1049.068 980.781,1049.068 Z" id="Shape" stroke-width="0.25"></path>
                            <polygon id="Shape" stroke-width="0.25" points="930.27 1043.062 941.463 1048.25 934.363 1088.113 941.189 1089.479 948.289 1052.072 977.232 1067.361 970.133 1101.766 940.916 1095.486 939.008 1131.525 912.793 1125.795"></polygon>
                            <path d="M921.805,1039.238 L904.875,1124.974 L850.813,1116.238 L866.651,1021.492 C866.651,1021.492 901.327,1030.23 911.157,1032.959 C916.07,1034.324 921.805,1039.238 921.805,1039.238 Z" id="Shape" stroke-width="0.25"></path>
                            <polygon id="Shape" stroke-width="0.25" points="868.875 979.061 857 974.998 854.812 982.811 818.25 967.811 816.375 974.686 865.125 994.061"></polygon>
                            <path d="M711.375,1073.436 L787.313,1099.374 L815.751,980.312 C815.751,980.312 778.263,968.664 764.189,964.062 C761.13,963.062 759.738,962.855 758.251,966.25 C747.693,990.34 711.375,1073.436 711.375,1073.436 Z" id="Shape" stroke-width="0.25"></path>
                            <polygon id="Shape" stroke-width="0.25" points="1022.965 853.084 1015.703 852.77 1014.441 850.242 1000.551 850.561 1001.814 860.346 1019.49 860.346"></polygon>
                            <polygon id="Shape" stroke-width="0.25" points="993.922 803.209 979.086 840.143 992.027 845.193 1007.18 808.889"></polygon>
                            <polygon id="Shape" stroke-width="0.25" points="1000.234 842.666 1016.02 844.877 1017.281 812.994 1013.176 811.1"></polygon>
                            <polygon id="Shape" stroke-width="0.25" points="971.824 793.42 988.24 800.996 972.771 836.668 956.988 828.777"></polygon>
                            <polygon id="Shape" stroke-width="0.25" points="995.654 852.84 995.916 856.562 975.395 847.73 977.125 844.354"></polygon>
                            <path d="M970.631,842.535 L969.418,845.306 C969.418,845.306 955.875,840.134 951.492,837.945 C946.644,835.521 931.748,827.728 931.748,827.728 L934.262,823.658 L970.631,842.535 Z" id="Shape" stroke-width="0.25"></path>
                            <path d="M1050.752,787.08 L1082.211,787.498 C1082.211,787.498 1081.629,798.018 1080.961,801.455 C1080.035,806.211 1075.336,819.998 1075.336,819.998 L1063.043,819.373 L1062.836,825.83 L1049.502,825.205 L1050.752,787.08 Z" id="Shape" stroke-width="0.25"></path>
                            <polygon id="Shape" stroke-width="0.25" points="1085.336 807.498 1094.502 808.748 1090.752 823.33 1082.002 821.248"></polygon>
                            <path d="M1034.188,830.311 L1034.188,826.041 L1037.106,826.041 L1037.106,821.873 L1032,821.873 L1032,848.955 L1032.52,848.955 L1037,837.498 L1034.188,837.393 L1034.188,833.229 L1042.418,833.229 L1042.418,835.311 L1035.02,854.791 L1027.418,854.998 C1027.418,854.998 1026.045,851.578 1025.23,850.518 C1024.56,849.651 1021.48,847.291 1021.48,847.291 L1023.042,811.873 C1023.042,811.873 1030.644,813.435 1034.187,812.393 C1036.296,811.774 1042.417,809.268 1042.417,809.268 L1042.417,830.311 L1034.188,830.311 Z" id="Shape" stroke-width="0.25"></path>
                            <polygon id="Shape" stroke-width="0.25" points="1154.402 856.881 1150.969 865.77 1156.117 867.799 1159.703 858.752"></polygon>
                            <polygon id="Shape" stroke-width="0.25" points="1149.492 819.369 1143.904 816.83 1147.967 804.637 1158.637 808.701 1156.605 814.795 1151.523 813.271"></polygon>
                            <polygon id="Shape" stroke-width="0.25" points="1144.412 803.113 1139.078 816.83 1086.502 799.049 1088.787 787.365 1124.092 787.619"></polygon>
                            <polygon id="Shape" stroke-width="0.25" points="730.391 855.666 724.441 872.256 697.391 872.256 697.752 865.584 709.473 865.764 709.834 858.553 707.311 856.568 718.67 846.832 722.818 849.896 715.965 856.207 728.768 854.225"></polygon>
                            <polygon id="Shape" stroke-width="0.25" points="692.523 863.783 691.98 872.076 657.898 867.389 658.801 859.814"></polygon>
                            <polygon id="Shape" stroke-width="0.25" points="693.424 854.043 692.883 861.258 659.521 856.93 660.244 850.256"></polygon>
                            <polygon id="Shape" stroke-width="0.25" points="651.949 859.453 651.406 866.486 616.605 861.076 617.506 855.125"></polygon>
                            <polygon id="Shape" stroke-width="0.25" points="653.391 848.814 652.668 856.029 618.227 851.881 619.309 845.209"></polygon>
                            <polygon id="Shape" stroke-width="0.25" points="730.934 850.256 723.359 844.486 735.439 827.535 743.555 833.307"></polygon>
                            <polygon id="Shape" stroke-width="0.25" points="739.588 821.943 747.883 828.258 759.967 810.945 751.67 805.174"></polygon>
                            <polygon id="Shape" stroke-width="0.25" points="622.016 780.289 607.588 835.469 554.209 819.6 568.816 765.682"></polygon>
                            <polygon id="Shape" stroke-width="0.25" points="623.045 774.996 632.75 736.387 580.006 722.039 570.09 760.438"></polygon>
                            <polygon id="Shape" stroke-width="0.25" points="642.666 699.889 591.188 684.486 582.328 716.766 634.227 730.689"></polygon>
                            <polygon id="Shape" stroke-width="0.25" points="864.523 782.873 849.336 775.361 853.254 767.77 868.201 775.361"></polygon>
                            <path d="M844.461,763.691 L827.277,754.58 L804.179,762.416 L807.056,770.486 C807.056,770.486 814.169,766.49 823.601,766.97 C832.785,767.439 840.304,771.845 840.304,771.845 L844.461,763.691 Z" id="Shape" stroke-width="0.25"></path>
                            <polygon id="Shape" stroke-width="0.25" points="869.918 770.209 854.398 761.979 864.189 741.459 880.23 749.584"></polygon>
                            <polygon id="Shape" stroke-width="0.25" points="856.273 737.709 846.793 757.709 832.523 750.625 841.793 731.041"></polygon>
                            <polygon id="Shape" stroke-width="0.25" points="873.668 772.188 887.211 779.271 897.939 758.646 884.293 751.875"></polygon>
                            <polygon id="Shape" stroke-width="0.25" points="905.771 795.566 903.211 800.76 868.238 781.812 870.871 777.057"></polygon>
                            <polygon id="Shape" stroke-width="0.25" points="966.021 791.131 952.057 824.412 937.627 816.963 951.941 784.963"></polygon>
                            <polygon id="Shape" stroke-width="0.25" points="931.578 813.59 937.395 800.789 929.6 796.834 934.371 786.246 929.6 784.615 926.223 791.715 920.406 788.572 913.426 802.885"></polygon>
                            <polygon id="Shape" stroke-width="0.25" points="918.078 769.256 907.723 789.736 891.898 781.24 902.371 760.877"></polygon>
                            <polygon id="Shape" stroke-width="0.25" points="941.229 744.043 960.438 751.287 948.865 776.244 930.441 767.898"></polygon>
                            <polygon id="Shape" stroke-width="0.25" points="965.711 754.514 954.297 778.922 968.703 785.691 980.121 760.971"></polygon>
                            <polygon id="Shape" stroke-width="0.25" points="985.75 763.229 1003.25 771.248 992 795.518 974.395 788.018"></polygon>
                            <polygon id="Shape" stroke-width="0.25" points="1008.25 773.748 1020.125 778.436 1023.406 796.248 1018.562 806.873 997 797.186"></polygon>
                            <path d="M1025.281,780.623 L1042.156,786.873 L1042.312,804.842 C1042.312,804.842 1039.048,808.336 1033.562,809.373 C1027.781,810.467 1022,808.279 1022,808.279 L1027.938,796.404 L1025.281,780.623 Z" id="Shape" stroke-width="0.25"></path>
                            <polygon id="Shape" stroke-width="0.25" points="820.299 748.844 804.609 755.354 797.598 747.176 786.582 742.168 806.445 731.318"></polygon>
                            <polygon id="Shape" stroke-width="0.25" points="799.77 757.521 782.744 765.869 773.898 756.689 779.238 744.84 795.762 751.85"></polygon>
                            <polygon id="Shape" stroke-width="0.25" points="752.535 790.568 728.336 823.951 725.664 821.949 722.158 827.623 708.141 817.775 714.48 808.262 744.023 785.061"></polygon>
                            <polygon id="Shape" stroke-width="0.25" points="755.707 784.229 748.363 779.553 763.051 758.691 771.229 761.695"></polygon>
                            <polygon id="Shape" stroke-width="0.25" points="759.043 757.521 744.189 777.553 700.293 750.014 707.305 737.326"></polygon>
                            <polygon id="Shape" stroke-width="0.25" points="710.143 797.748 716.484 802.088 739.852 783.561 733.008 778.553"></polygon>
                            <polygon id="Shape" stroke-width="0.25" points="707.408 801.17 712.607 804.326 704.969 815.439 699.236 811.014"></polygon>
                            <polygon id="Shape" stroke-width="0.25" points="964.158 742.494 962.412 746.334 944.727 738.652 946.355 734.812"></polygon>
                            <polygon id="Shape" stroke-width="0.25" points="937.164 731.207 935.418 735.047 898.066 719.453 900.045 715.033"></polygon>
                            <polygon id="Shape" stroke-width="0.25" points="933.092 742.027 922.27 762.158 906.793 754.246 917.031 735.977"></polygon>
                            <polygon id="Shape" stroke-width="0.25" points="913.193 734.232 903.07 752.617 894.691 748.193 904.814 730.625"></polygon>
                            <polygon id="Shape" stroke-width="0.25" points="720.086 832.834 705.662 823.127 691.516 846.426 700.395 851.975 710.934 846.705"></polygon>
                            <polygon id="Shape" stroke-width="0.25" points="702.057 819.799 697.617 817.025 681.807 840.879 686.523 843.652"></polygon>
                            <polygon id="Shape" stroke-width="0.25" points="835.793 727.127 825.215 747.156 814.777 734.885 817.598 718.385"></polygon>
                            <polygon id="Shape" stroke-width="0.25" points="869.502 715.281 861.041 731.924 845.383 723.885 853.564 707.807"></polygon>
                            <path d="M1021.586,728.748 C1037.234,746.17 1037.76,777.623 1037.76,777.623 L967.418,748.748 L969.918,742.08 L972.002,743.33 L973.668,740.83 L972.002,739.58 L977.002,732.498 L1002.311,743.328 C1002.311,743.328 1016.51,749.432 1021.139,742.066 C1024.789,736.255 1019.666,729.863 1019.666,729.863 C1019.666,729.863 1021.273,728.4 1021.586,728.748 Z" id="Shape" stroke-width="0.25"></path>
                            <polygon id="Shape" stroke-width="0.25" points="1052.844 1077.428 1052.334 1088.525 1059.848 1088.697 1059.848 1085.283 1070.945 1085.113 1071.117 1077.77"></polygon>
                            <polygon id="Shape" stroke-width="0.25" points="1075.729 1078.453 1075.557 1085.283 1117.223 1085.623 1117.391 1076.232 1088.703 1075.893 1088.533 1078.795"></polygon>
                            <polygon id="Shape" stroke-width="0.25" points="1122.949 1070.203 1130.461 1070.203 1130.291 1082.838 1122.607 1082.666"></polygon>
                            <polygon id="Shape" stroke-width="0.25" points="1138.223 1070.256 1142.322 1070.256 1142.492 1077.598 1138.053 1077.428"></polygon>
                            <polygon id="Shape" stroke-width="0.25" points="1138.395 1080.842 1138.395 1085.283 1142.492 1085.451 1142.322 1080.842"></polygon>
                            <polygon id="Shape" stroke-width="0.25" points="1052.334 1092.111 1059.676 1092.111 1058.992 1111.068 1051.48 1110.725"></polygon>
                            <polygon id="Shape" stroke-width="0.25" points="1068.213 1088.016 1068.043 1099.627 1127.295 1101.162 1127.295 1089.039"></polygon>
                            <polygon id="Shape" stroke-width="0.25" points="1131.736 1088.355 1131.736 1106.113 1139.248 1105.775 1139.248 1088.016"></polygon>
                            <polygon id="Shape" stroke-width="0.25" points="1133.877 1108.959 1134.502 1138.334 1142.418 1140.834 1142.418 1123.541 1140.127 1122.709 1139.918 1109.166"></polygon>
                            <polygon id="Shape" stroke-width="0.25" points="1128.877 1113.334 1129.711 1134.584 1099.502 1133.75 1098.668 1112.916"></polygon>
                            <polygon id="Shape" stroke-width="0.25" points="1089.502 1104.584 1074.293 1103.959 1074.086 1117.709 1089.502 1118.541"></polygon>
                            <polygon id="Shape" stroke-width="0.25" points="1104.502 1300.416 1128.252 1302.498 1139.086 1269.166 1103.252 1261.248 1094.086 1222.498 1109.918 1218.748 1111.586 1227.08 1134.502 1235.83 1136.586 1228.33 1131.586 1225.83 1144.502 1187.08 1124.918 1180.416 1121.586 1189.998 1129.918 1193.748 1126.168 1204.998 1111.168 1199.58 1094.502 1204.58 1089.502 1178.33 1071.586 1181.666 1070.336 1176.248 1074.918 1174.998 1073.668 1169.166 1065.752 1170.416 1062.418 1154.58 1077.418 1151.248 1079.502 1159.998 1086.586 1157.916 1085.752 1150.83 1101.586 1146.666 1100.752 1140.83 1094.918 1139.998 1094.918 1134.58 1089.918 1134.58 1089.502 1121.666 1074.502 1120.416 1074.502 1135.416 1070.75 1135.311 1070.336 1126.248 1050.336 1125.416 1050.752 1137.08 1061.168 1137.08 1063.252 1141.666 1079.086 1142.498 1061.531 1146.561 1059.086 1141.248 1050.752 1142.498 1090.752 1299.998 1103.252 1307.08"></polygon>
                            <polygon id="Shape" stroke-width="0.25" points="1078.668 1167.498 1079.812 1172.967 1087.418 1170.83 1088.406 1174.217 1103.668 1169.166 1102.418 1163.33 1097.418 1164.58 1096.586 1161.248"></polygon>
                            <polygon id="Shape" stroke-width="0.25" points="1100.455 1149.1 1100.611 1155.352 1110.615 1154.883 1112.418 1162.08 1133.252 1156.248 1132.188 1160.666 1113.252 1166.248 1116.168 1174.998 1135.336 1179.998 1136.168 1173.748 1144.918 1176.666 1145.752 1172.498 1153.252 1174.998 1157.836 1160.83 1146.168 1156.666 1143.365 1164.186 1139.693 1162.857 1142.418 1151.248 1135.395 1148.943 1133.828 1142.77 1106.785 1142.613 1107.098 1148.631"></polygon>
                            <polygon id="Shape" stroke-width="0.25" points="1147.195 1142.535 1157.277 1145.975 1156.027 1149.49 1159.781 1151.055 1157.902 1156.291 1148.055 1152.852 1149.072 1149.725 1145.164 1148.24"></polygon>
                            <path d="M1034.082,1075.834 C1034.082,1075.834 1032.92,1090.6 1031.687,1094.373 C1028.355,1104.58 1024.341,1119.941 1022.417,1129.584 C1020.409,1139.645 1018.546,1160.26 1015.331,1170 C1012.616,1178.225 1003.874,1190.625 1003.651,1202.617 C1003.465,1212.646 1011.52,1226.838 1017.073,1235.939 C1021.745,1243.601 1027.563,1251.83 1032.807,1258.154 C1037.463,1263.769 1047.621,1274.199 1053.481,1279.134 C1059.497,1284.198 1081.864,1299.032 1081.864,1299.032 L1043.249,1146.247 L1046.999,1077.497 L1034.082,1075.834 Z" id="Shape" stroke-width="0.25"></path>
                            <polygon id="Shape" stroke-width="0.25" points="630.281 838.229 631.324 833.697 620.438 833.357 623.016 822.654 617.303 821.201 613.043 837.656"></polygon>
                            <polygon id="Shape" stroke-width="0.25" points="640.848 809.904 635.934 826.24 632.215 825.047 637.262 808.975"></polygon>
                            <polygon id="Shape" stroke-width="0.25" points="642.156 838.748 650.984 839.1 652.668 835.406 647.754 832.881 648.816 830.625 652.271 831.818 656.387 820.529 659.812 820.545 661.297 816.951 647.859 815.623 641.512 829.297 646.295 830.889"></polygon>
                            <polygon id="Shape" stroke-width="0.25" points="668.094 817.576 665.125 817.342 657.184 836.07 659.707 836.602 658.406 839.334 677.107 840.055 686.648 825.662 683.482 824.912 681.357 827.834 679.23 826.375 676.045 831.422 671.131 828.766 670.467 829.961 667.277 828.232 664.754 832.352 663.562 831.561 663.027 832.482 661.568 831.818"></polygon>
                            <polygon id="Shape" stroke-width="0.25" points="684.678 807.115 675.867 800.35 673.521 803.396 682.949 809.771"></polygon>
                            <polygon id="Shape" stroke-width="0.25" points="621.631 804.434 637.262 808.975 632.215 825.047 617.303 821.201"></polygon>
                            <polygon id="Shape" stroke-width="0.25" points="693.162 754.842 684.957 771.49 711.219 785.311 718.805 785.611 728.98 775.986"></polygon>
                            <polygon id="Shape" stroke-width="0.25" points="680.143 729.195 692.264 733.004 690.486 738.336 685.535 736.875 686.297 734.209 679.381 731.543"></polygon>
                            <polygon id="Shape" stroke-width="0.25" points="688.074 744.43 686.867 747.477 662.115 739.922 662.75 738.018 664.527 738.525 664.844 737.32"></polygon>
                            <polygon id="Shape" stroke-width="0.25" points="646.82 732.178 647.707 729.449 641.678 727.799 640.09 732.812 660.023 739.16 660.846 736.432"></polygon>
                            <polygon id="Shape" stroke-width="0.25" points="644.406 717.709 643.012 722.977 645.994 723.865 646.82 721.58 650.246 722.596 651.008 719.93"></polygon>
                            <polygon id="Shape" stroke-width="0.25" points="767.752 754.1 760.488 750.887 763.203 744.877 758.781 742.854 761.672 736.785 773.35 742.223"></polygon>
                            <polygon id="Shape" stroke-width="0.25" points="742.484 727.945 736.164 741.338 726.689 737.041 733.006 723.143"></polygon>
                            <polygon id="Shape" stroke-width="0.25" points="728.457 720.996 721.51 735.146 709.127 730.471 716.834 715.436"></polygon>
                            <polygon id="Shape" stroke-width="0.25" points="650.271 741.627 653.871 742.695 643.338 782.6 639.996 781.299"></polygon>
                            <polygon id="Shape" stroke-width="0.25" points="635.164 751.277 627.369 781.113 635.166 783.158 642.781 753.445"></polygon>
                            <polygon id="Shape" stroke-width="0.25" points="637.34 742.695 643.152 744.344 644.498 739.846 638.512 738.029"></polygon>
                            <polygon id="Shape" stroke-width="0.25" points="707.779 791.328 710.75 789.471 701.836 784.271 699.793 787.057"></polygon>
                            <polygon id="Shape" stroke-width="0.25" points="679.551 760.873 682.895 762.73 684.195 760.314 680.85 758.457"></polygon>
                            <polygon id="Shape" stroke-width="0.25" points="688.133 757.811 684.381 756.23 686.336 752.42 690.322 753.631"></polygon>
                            <polygon id="Shape" stroke-width="0.25" points="1122.623 781.076 1093.814 779.654 1092.725 764.498 1114.246 762.068 1126.223 769.436"></polygon>
                            <polygon id="Shape" stroke-width="0.25" points="1076.898 742.305 1084.1 741.131 1087.783 780.156 1078.486 779.904"></polygon>
                            <polygon id="Shape" stroke-width="0.25" points="1090.297 739.707 1092.223 759.473 1112.74 756.459 1110.227 736.861"></polygon>
                            <polygon id="Shape" stroke-width="0.25" points="1115.168 735.689 1124.797 734.432 1127.395 754.363 1117.682 755.621"></polygon>
                            <polygon id="Shape" stroke-width="0.25" points="1130.41 733.342 1133.006 753.191 1147.744 750.596 1145.4 730.83"></polygon>
                            <polygon id="Shape" stroke-width="0.25" points="1122.623 760.225 1133.34 759.137 1134.012 764.916 1128.984 765.502 1122.705 761.314"></polygon>
                            <polygon id="Shape" stroke-width="0.25" points="1153.941 750.094 1159.805 749.508 1160.055 728.404 1151.514 730.078"></polygon>
                            <path d="M1127.73,782.236 C1127.73,782.236 1131.636,786.509 1138.562,791.197 C1148.945,798.222 1156.738,800.83 1156.738,800.83 L1163.144,781.51 L1132.675,773.072 L1127.73,782.236 Z" id="Shape" stroke-width="0.25"></path>
                            <polygon id="Shape" stroke-width="0.25" points="1085.234 710.826 1077.213 708.086 1044.529 727.459 1045.312 737.244 1050.4 740.377 1071.926 739.592 1082.691 736.658 1081.32 722.371"></polygon>
                            <polygon id="Shape" stroke-width="0.25" points="1073.494 768.75 1074.08 780.49 1044.922 780.49 1043.943 767.771 1051.77 766.402 1063.121 766.207 1063.316 769.336"></polygon>
                            <polygon id="Shape" stroke-width="0.25" points="1042.379 762.293 1047.662 760.924 1049.031 766.793 1043.943 767.771"></polygon>
                            <polygon id="Shape" stroke-width="0.25" points="1048.641 760.729 1049.031 763.857 1051.379 763.857 1051.379 760.139"></polygon>
                            <path d="M1029.918,700.209 C1032.625,704.897 1028.426,707.125 1026.895,708.854 C1025.04,710.954 1016.375,715.522 1016.375,715.522 C1016.375,715.522 1023.924,721.155 1025.957,723.438 C1028.279,726.045 1033.769,735.104 1033.769,735.104 L1041.167,730.522 L1040.956,725.729 L1076.792,704.791 L1086.167,707.291 L1088.979,703.021 L1087.104,689.687 L1078.042,693.021 L1076.894,691.562 L1070.23,696.874 C1070.23,696.874 1067.929,699.458 1066.894,699.895 C1064.917,700.727 1058.779,704.524 1058.249,703.333 C1057.831,702.395 1061.792,701.353 1065.956,696.665 C1067.876,694.507 1071.792,686.665 1071.792,686.665 L1083.667,683.436 L1082.417,677.707 L1071.27,680 L1070.958,677.812 L1006.583,694.374 C1006.583,694.374 1003.229,695.464 1002.208,696.04 C1001.142,696.642 998.356,699.061 998.356,699.061 C998.356,699.061 1000.426,703.026 1001.376,704.165 C1002.524,705.54 1006.794,708.853 1006.794,708.853 L1008.876,706.978 L1006.481,703.021 C1006.481,703.021 1014.422,700.673 1017.313,699.687 C1021.898,698.125 1028.721,698.139 1029.918,700.209 Z" id="Shape" stroke-width="0.25"></path>
                            <polygon id="Shape" stroke-width="0.25" points="1153.738 1180.58 1152.701 1185.43 1161.65 1188.236 1162.588 1183.064"></polygon>
                            <path d="M1146.988,1272.533 L1164.019,1278.615 L1141.513,1331.168 C1141.513,1331.168 1134.402,1327.576 1134.304,1317.732 C1134.265,1313.787 1139.081,1300.64 1140.661,1295.037 C1142.18,1289.654 1146.988,1272.533 1146.988,1272.533 Z" id="Shape" stroke-width="0.25"></path>
                            <polygon id="Shape" stroke-width="0.25" points="682.445 1177.32 671.402 1197.771 669.355 1207.178 699.83 1212.291 711.689 1188.568"></polygon>
                            <polygon id="Shape" stroke-width="0.25" points="682.559 1122.842 694.504 1127.85 674.047 1167.193 661.527 1162.326"></polygon>
                            <polygon id="Shape" stroke-width="0.25" points="836.883 1204.625 833.871 1221.975 840.752 1222.979 843.477 1205.914"></polygon>
                            <polygon id="Shape" stroke-width="0.25" points="840.896 1178.67 847.35 1179.244 845.199 1195.447 838.461 1194.441"></polygon>
                            <polygon id="Shape" stroke-width="0.25" points="943.875 1140.467 943.211 1144.881 956.18 1146.99 956.844 1142.654"></polygon>
                            <polygon id="Shape" stroke-width="0.25" points="964.656 1148.436 934.344 1240.311 967.312 1243.748 968.094 1238.123 942.625 1234.998 970.75 1149.061"></polygon>
                            <path d="M1165.645,709.998 L1156.895,711.041 L1157.106,700.103 L1152.313,700.415 L1155.958,709.372 L1149.501,711.767 L1145.333,701.353 L1132.313,702.392 L1133.356,716.872 L1109.188,719.06 L1107.208,705.728 L1149.919,686.04 C1149.919,686.04 1152.935,684.747 1152.314,680.728 C1151.896,678.017 1150.439,675.83 1150.439,675.83 L1146.794,677.498 L1145.232,674.373 L1139.814,676.666 L1141.376,679.686 L1137.208,681.354 L1138.251,683.956 L1096.169,701.667 L1087.626,719.374 L1089.294,734.479 L1165.021,721.874 L1165.645,709.998 Z" id="Shape" stroke-width="0.25"></path>
                            <polygon id="Shape" stroke-width="0.25" points="655.475 1151.734 642.525 1176.602 593.133 1154.371 573.535 1153.912 589.121 1120.449"></polygon>
                            <path d="M570.43,1160.811 L590.83,1160.811 L640.074,1183.086 L593.879,1267.969 C593.879,1267.969 572.797,1272.119 565.537,1273.221 C553.678,1275.02 531.566,1277.496 518.641,1278.436 C515.75,1278.647 516.086,1276.11 516.5,1275.241 C530.02,1246.771 570.43,1160.811 570.43,1160.811 Z" id="Shape" stroke-width="0.25"></path>
                            <polygon id="Shape" stroke-width="0.25" points="744.031 1227.498 742.93 1232.561 784.344 1240.584 785.242 1235.115"></polygon>
                            <polygon id="Shape" stroke-width="0.25" points="802.732 1262.955 799.771 1262.363 800.166 1259.996 810.242 1261.795 808.797 1272.498 786.648 1270.857 787.535 1268.086 801.648 1269.373 801.961 1267.654 794.109 1266.678 794.441 1264.533 802.273 1265.428"></polygon>
                            <polygon id="Shape" stroke-width="0.25" points="725.75 1224.166 680.477 1215.623 679.082 1219.791 724.5 1228.955"></polygon>
                            <polygon id="Shape" stroke-width="0.25" points="667 1213.123 665.543 1217.916 653.457 1215.416 654.082 1213.541 646.168 1212.08 647.234 1209.061"></polygon>
                            <polygon id="Shape" stroke-width="0.25" points="617.418 1258.955 660.332 1261.666 658.457 1268.123 605.957 1266.873 637.832 1207.08 643.797 1208.279"></polygon>
                            <polygon id="Shape" stroke-width="0.25" points="671.793 1268.748 674.188 1262.811 808.797 1272.498 808.055 1277.928"></polygon>
                            <path d="M621.133,1274.307 L612.395,1372.045 L579.07,1372.045 C579.07,1372.045 585.433,1334.756 588.215,1322.463 C590.981,1310.254 601.219,1274.104 601.219,1274.104 L621.133,1274.307 Z" id="Shape" stroke-width="0.25"></path>
                            <polygon id="Shape" stroke-width="0.25" points="715.721 1284.998 705.531 1376.791 693.109 1375.447 691.92 1381.102 709.771 1383.184 721.078 1279.643 700.547 1278.154 700.25 1283.51"></polygon>
                            <polygon id="Shape" stroke-width="0.25" points="700.25 1283.51 715.721 1284.998 705.531 1376.791 693.109 1375.447"></polygon>
                            <polygon id="Shape" stroke-width="0.25" points="659.488 1279.277 658.092 1300.209 654.68 1300.361 654.217 1309.199 661.191 1309.51 661.502 1301.139 667.549 1301.447 662.277 1372.139 684.912 1374.619 692.662 1282.225"></polygon>
                            <polygon id="Shape" stroke-width="0.25" points="659.773 1275.115 659.488 1279.277 692.662 1282.225 693.172 1277.264"></polygon>
                            <polygon id="Shape" stroke-width="0.25" points="626.748 1331.746 627.383 1326.973 630.088 1327.135 630.723 1319.658 627.861 1319.658 630.564 1289.279 633.428 1289.439 634.062 1279.1 646.152 1279.1 646.471 1274.963 625.635 1274.646 617.523 1372.303 626.023 1373.436 626.453 1369.998 623.566 1369.6 624.998 1356.238 627.703 1355.92 628.816 1340.176 626.27 1339.857 626.588 1336.199 629.133 1336.518 629.609 1332.064"></polygon>
                            <polygon id="Shape" stroke-width="0.25" points="646.152 1279.1 638.994 1352.105 632.291 1351.342 631.482 1359.643 628.338 1359.42 627.703 1365.623 630.883 1365.939 630.406 1370.393 623.566 1369.6 624.998 1356.238 627.703 1355.92 628.816 1340.176 626.27 1339.857 626.588 1336.199 629.133 1336.518 629.609 1332.064 626.748 1331.746 627.383 1326.973 630.088 1327.135 630.723 1319.658 627.861 1319.658 630.564 1289.279 633.428 1289.439 634.062 1279.1"></polygon>
                            <polygon id="Shape" stroke-width="0.25" points="736.586 1286.873 772.002 1289.373 772.211 1283.123 729.918 1280.205 726.586 1307.916 734.086 1308.748"></polygon>
                            <polygon id="Shape" stroke-width="0.25" points="779.5 1283.631 786.062 1284.061 785.543 1289.998 779.07 1289.568"></polygon>
                            <polygon id="Shape" stroke-width="0.25" points="775.127 1299.998 784.188 1300.818 783.406 1308.357 774.293 1307.291"></polygon>
                            <polygon id="Shape" stroke-width="0.25" points="727.859 1336.678 730.438 1337.146 730.961 1334.373 724.086 1332.916 717.836 1386.248 723.668 1387.08 730.008 1339.725 727.391 1339.1"></polygon>
                            <polygon id="Shape" stroke-width="0.25" points="736.586 1286.873 755.957 1288.334 744.5 1390.834 723.668 1387.08 730.008 1339.725 727.391 1339.1 727.859 1336.678 730.438 1337.146 730.961 1334.373 724.086 1332.916 726.586 1307.916 734.086 1308.748"></polygon>
                            <polygon id="Shape" stroke-width="0.25" points="770.125 1370.232 761.648 1369.725 760.867 1376.756 775.477 1377.615 777.938 1355.936 771.688 1355.545"></polygon>
                            <polygon id="Shape" stroke-width="0.25" points="763.328 1355.076 762.43 1362.693 767.938 1362.967 768.562 1355.545"></polygon>
                            <polygon id="Shape" stroke-width="0.25" points="772.637 1318.619 767.508 1318.006 768.145 1312.891 773.184 1313.424"></polygon>
                            <polygon id="Shape" stroke-width="0.25" points="766.844 1323.162 781.609 1323.592 780.75 1331.717 776.531 1331.639 775.281 1344.373 779.188 1344.686 778.445 1351.678 763.797 1351.092 764.656 1343.436 770.359 1343.748 771.531 1329.998 766.141 1329.686"></polygon>
                            <rect id="Rectangle-path" stroke-width="0.5" transform="translate(768.652198, 1291.995460) rotate(3.996629) translate(-768.652198, -1291.995460) " x="765.471596" y="1289.14387" width="6.36120307" height="5.70318207"></rect>
                            <path d="M976.113,1250.779 L826.375,1236.873 L821.531,1273.279 L961.219,1275.31 L962.586,1269.177 L968.406,1269.099 L967.117,1275.31 C967.117,1275.31 970.545,1275.562 971.687,1275.622 C979.55,1276.04 988.3,1278.122 1004.343,1292.966 C1005.234,1293.79 1007.991,1295.935 1007.991,1295.935 L1011.948,1290.83 L986.219,1270.049 C986.219,1270.049 983.901,1265.873 982.26,1264.111 C980.836,1262.586 975.698,1258.955 975.698,1258.955 C975.698,1258.955 976.202,1255.527 976.257,1254.451 C976.307,1253.484 976.113,1250.779 976.113,1250.779 Z" id="Shape" stroke-width="0.25"></path>
                            <path d="M821.375,1236.248 L815.477,1279.06 C815.477,1279.06 919.694,1280.228 954.383,1280.779 C983.875,1281.248 995.438,1292.185 1001.063,1297.029 C1002.321,1298.111 1004.735,1300.154 1004.735,1300.154 L1007.993,1295.935 C1007.993,1295.935 1006.352,1294.669 1004.188,1292.81 C996.008,1285.779 986.168,1276.197 971.688,1275.622 C970.711,1275.583 967.118,1275.31 967.118,1275.31 L968.407,1269.099 L962.587,1269.177 L961.22,1275.31 L821.532,1273.279 L826.376,1236.873 L821.375,1236.248 Z" id="Shape" stroke-width="0.25"></path>
                            <polygon id="Shape" stroke-width="0.25" points="821.412 1402.15 816.023 1401.365 827.51 1319.732 832.977 1320.467"></polygon>
                            <polygon id="Shape" stroke-width="0.25" points="838.221 1393.438 832.078 1392.693 840.477 1321.873 846.922 1322.584"></polygon>
                            <polygon id="Shape" stroke-width="0.25" points="789.891 1388.514 781.766 1387.342 790.984 1302.342 794.953 1302.689 793.992 1311.092 797.742 1311.248 798.016 1308.436 802.977 1308.865 802.391 1315.584 793.637 1315.24 786.395 1384.139 790.398 1384.764"></polygon>
                            <polygon id="Shape" stroke-width="0.25" points="792.938 1284.061 792.469 1288.592 819.969 1289.998 819.969 1292.654 825.281 1292.967 825.281 1295.154 828.875 1295.311 829.188 1290.779 837.234 1291.131 837.938 1285.623"></polygon>
                            <polygon id="Shape" stroke-width="0.25" points="877.848 1286.422 895.633 1286.834 892.738 1314.754 887.773 1314.754 877.434 1407.402 863.164 1406.162"></polygon>
                            <polygon id="Shape" stroke-width="0.25" points="864.082 1292.291 859.32 1330.568 865.523 1331.174 870.816 1286.627 844.758 1285.623 844.109 1291.365 850.135 1291.59 849.734 1295.076 856.754 1295.107 857.156 1291.99"></polygon>
                            <polygon id="Shape" stroke-width="0.25" points="863.871 1344.703 857.68 1343.939 851.26 1399.635 847.5 1399.174 846.727 1405.037 856.609 1406.27"></polygon>
                            <polygon id="Shape" stroke-width="0.25" points="861.516 1335.338 858.773 1335 859.32 1330.568 852.564 1329.74 850.977 1342.965 857.68 1343.939 858.207 1339.59 860.945 1339.928"></polygon>
                            <path d="M895.438,1408.67 L907.626,1315.623 L898.564,1314.685 L901.376,1286.873 L927.314,1287.498 C927.314,1287.498 921.376,1314.06 931.064,1322.498 C943.894,1333.672 958.876,1337.81 958.876,1337.81 L947.333,1413.386 L895.438,1408.67 Z" id="Shape" stroke-width="0.25"></path>
                            <path d="M988.193,1390.123 L993.562,1390.935 L999.812,1355.935 C999.812,1355.935 1012.099,1360.456 1017.312,1364.06 C1023.123,1368.08 1040.126,1381.771 1040.126,1381.771 L1019.814,1424.166 L952.312,1414.061 L963.562,1340.311 L994.419,1353.571 L988.193,1390.123 Z" id="Shape" stroke-width="0.25"></path>
                            <path d="M1052.105,1323.125 C1042.109,1314.998 1011.949,1290.83 1011.949,1290.83 L1004.734,1300.154 L1009.908,1304.531 L1012.238,1301.556 L1046.824,1328.562 L1047.176,1328.113 L1052.571,1332.322 L1053.651,1330.943 L1055.446,1332.341 L1056.243,1331.321 L1065.03,1338.169 L1067.833,1333.124 C1067.832,1333.125 1059.5,1329.139 1052.105,1323.125 Z" id="Shape" stroke-width="0.25"></path>
                            <polygon id="Shape" stroke-width="0.25" points="1055.445 1332.342 1053.65 1330.943 1052.57 1332.322 1047.176 1328.113 1046.824 1328.562 1012.238 1301.557 1010.232 1304.117 1009.908 1304.531 1044.498 1331.537 1043.447 1332.879 1059.426 1345.338 1065.029 1338.17 1056.242 1331.322"></polygon>
                            <polygon id="Shape" stroke-width="0.25" points="1001.453 1305.584 999.5 1311.561 1019.969 1326.561 1014.969 1339.529 1012.156 1338.592 1008.562 1347.654 1002.781 1345.311 1003.875 1342.498 997.312 1339.529 995.867 1342.967 1002.508 1345.857 1001.18 1349.256 1014.812 1354.842 1026.688 1324.998"></polygon>
                            <path d="M959.812,1287.811 L959.812,1292.342 L968.718,1292.811 L969.656,1288.358 C969.656,1288.358 967.625,1287.85 964.968,1287.811 C963.68,1287.791 959.812,1287.811 959.812,1287.811 Z" id="Shape" stroke-width="0.25"></path>
                            <polygon id="Shape" stroke-width="0.25" points="957.234 1287.771 931.793 1287.5 931.297 1292.029 940.336 1292.084 940.336 1294.793 947.625 1294.793 947.625 1292.084 957.207 1292.084"></polygon>
                            <polygon id="Shape" stroke-width="0.25" points="963.527 1333.838 959.654 1332.312 961.941 1326.494 965.807 1328.023"></polygon>
                            <polygon id="Shape" stroke-width="0.25" points="985.066 1342.596 981.203 1341.014 983.482 1335.244 987.383 1336.771"></polygon>
                            <path d="M958.875,1327.084 L957.207,1331.25 C957.207,1331.25 940.74,1326.814 933.25,1316.875 C928.773,1310.936 930.543,1298.959 930.543,1298.959 L934.707,1299.375 C934.707,1299.375 933.975,1310.953 937.625,1315.209 C942.938,1321.404 958.875,1327.084 958.875,1327.084 Z" id="Shape" stroke-width="0.25"></path>
                            <polygon id="Shape" stroke-width="0.25" points="1031.689 1328.541 1057.836 1348.334 1043.461 1376.041 1019.918 1357.812"></polygon>
                            <path d="M1067.84,1363.258 L1076.902,1341.291 L1085.136,1344.617 L1086.845,1340.39 L1074.843,1335.54 L1063.491,1362.313 C1063.491,1362.313 1063.093,1363.395 1063.366,1364.489 C1063.68,1365.749 1064.452,1366.354 1064.452,1366.354 L1132.02,1440.09 L1135.405,1436.986 L1067.84,1363.258 Z" id="Shape" stroke-width="0.25"></path>
                            <polygon id="Shape" stroke-width="0.25" points="780.156 713.1 783.586 714.889 772.998 736.365 750.182 724.434 751.227 721.896 770.91 731.891"></polygon>
                            <polygon id="Shape" stroke-width="0.25" points="818.25 967.811 821.949 962.029 857 974.998 854.812 982.811"></polygon>
                            <polygon id="Shape" stroke-width="0.25" points="970.555 1039.295 965.635 1037.697 972.09 1017.877 977.004 1019.473"></polygon>
                            <polygon id="Shape" stroke-width="0.25" points="978.682 1043.299 973.762 1041.701 980.219 1021.881 985.133 1023.477"></polygon>
                            <polygon id="Shape" stroke-width="0.25" points="963.717 1034.631 958.605 1033.822 961.582 1015.164 966.67 1015.975"></polygon>
                        </g>
                        <g id="Wichtige_Gebäude" transform="translate(7.000000, 60.000000)" fill-rule="nonzero" fill="#E85C2C" opacity="0.651551178">
                            <polygon id="Shape" points="974.98 905.312 974.252 912.188 969.668 910.834 968.314 919.479 922.377 910.312 926.23 894.896 930.969 895.857 931.961 891.979 937.688 893.006 936.906 897.068 941.633 898.084 942.586 894.375 947.689 895.312 947.062 899.1"></polygon>
                            <polygon id="Shape" points="977.012 919.529 982.168 919.58 982.43 894.736 973.887 889.635 974.721 888.072 969.355 885.361 966.074 891.666 977.221 898.018"></polygon>
                            <polygon id="Shape" points="962.656 891.367 959.873 889.566 958.234 892.268 952.586 888.83 954.059 886.414 951.604 884.941 954.059 880.889 956.188 882.117 957.375 880.275 963.146 883.795 962.082 885.555 964.949 887.479"></polygon>
                            <polygon id="Shape" points="950.129 880.152 947.836 878.516 949.516 875.936 942.926 871.883 941.166 874.707 938.461 873.111 935.926 876.959 939.242 879.252 937.809 881.338 943.254 884.859 945.301 881.994 947.756 883.551"></polygon>
                            <polygon id="Shape" points="902.531 874.373 908 880.154 897.219 902.342 890.656 898.123"></polygon>
                            <polygon id="Shape" points="845.188 883.904 831.906 910.779 809.562 903.748 823.469 874.373 830.969 878.045 832.414 875.037 841.789 878.982 840.656 882.146"></polygon>
                            <polygon id="Shape" points="794.719 809.959 790.891 816.014 808.43 824.686 811.672 818.475"></polygon>
                            <polygon id="Shape" points="1029.875 947.811 1031.75 961.717 1048 960.779 1047.688 957.498 1052.844 954.686 1044.875 945.311"></polygon>
                            <polygon id="Shape" points="1018.469 963.436 1018.938 967.342 1015.5 967.654 1015.188 963.748"></polygon>
                            <polygon id="Shape" points="1071.832 854.041 1062.035 851.258 1059.98 858.635 1069.896 861.297"></polygon>
                            <polygon id="Shape" points="1076.309 860.209 1076.066 866.861 1091.908 867.104 1097.473 846.18 1089.369 844.244 1084.652 862.508 1081.629 862.869 1081.629 860.33"></polygon>
                            <polygon id="Shape" points="1083.564 857.305 1087.191 843.76 1080.66 843.639 1082.717 836.383 1087.072 836.986 1087.797 832.996 1084.895 832.391 1085.137 829.246 1075.58 828.883 1071.227 851.258 1076.551 852.227 1075.703 855.732"></polygon>
                            <polygon id="Shape" points="1097.354 864.441 1100.256 864.441 1100.014 867.828 1096.869 867.467"></polygon>
                            <polygon id="Shape" points="1098.32 859.119 1098.078 862.869 1111.262 863.232 1111.383 859.363"></polygon>
                            <polygon id="Shape" points="1113.439 859.482 1113.439 862.99 1129.404 862.627 1129.162 858.758"></polygon>
                            <polygon id="Shape" points="1109.689 865.41 1109.447 868.314 1113.076 868.555 1113.316 865.41"></polygon>
                            <polygon id="Shape" points="1115.859 865.771 1115.496 868.916 1120.816 869.039 1120.938 865.895"></polygon>
                            <polygon id="Shape" points="1093.119 832.51 1098.803 834.324 1103.643 820.779 1097.836 818.602"></polygon>
                            <polygon id="Shape" points="1110.656 823.199 1116.461 825.014 1106.545 854.889 1100.98 852.711"></polygon>
                            <polygon id="Shape" points="1089.975 823.199 1093.361 824.166 1095.9 816.666 1092.152 815.457"></polygon>
                            <rect id="Rectangle-path" x="1112.834" y="849.928" width="16.57" height="3.992"></rect>
                            <polygon id="Shape" points="1143.193 833.479 1132.188 865.047 1139.564 867.586 1150.449 836.018"></polygon>
                            <polygon id="Shape" points="1094.406 808.748 1093 812.967 1134.094 827.342 1135.5 823.279"></polygon>
                            <polygon id="Shape" points="1137.531 824.373 1136.281 827.967 1148.938 832.498 1150.188 828.748"></polygon>
                            <polygon id="Shape" points="1132.844 831.873 1128.781 829.998 1129.406 828.123 1122.375 825.779 1121.438 828.123 1118.156 826.561 1116.125 832.498 1119.875 834.373 1119.25 836.248 1125.031 838.279 1125.969 836.092 1130.5 837.811"></polygon>
                            <polygon id="Shape" points="925.715 797.066 933.471 800.826 942.178 781.668 923.213 774.119 916.246 788.828 922.344 791.635 925.633 784.666 930.373 786.504"></polygon>
                            <polygon id="Shape" points="765.402 945.965 761.5 956.889 797.074 968.746 800.664 957.822"></polygon>
                            <polygon id="Shape" points="848.393 1050.803 858.264 1002.471 844.289 997.854 842.109 1005.934 850.443 1009.137 849.162 1013.367 854.289 1015.674 853.648 1017.729 848.393 1015.932 845.57 1025.803 821.34 1019.648 825.57 997.854 832.75 1000.547 832.625 1004.01 839.033 1006.445 841.852 996.572 828.393 991.189 826.855 993.367 819.289 990.162 812.111 1027.342 843.777 1034.779 840.699 1050.162"></polygon>
                            <polygon id="Shape" points="824.545 1017.729 831.213 1019.648 831.982 1016.445 825.314 1014.266"></polygon>
                            <polygon id="Shape" points="838.137 1013.111 839.033 1009.904 826.855 1006.061 826.084 1009.393"></polygon>
                            <polygon id="Shape" points="841.213 1008.623 840.57 1011.189 845.314 1012.598 846.084 1010.162"></polygon>
                            <polygon id="Shape" points="1162.678 762.859 1162.859 768.393 1157.961 768.301 1157.961 770.479 1152.062 770.568 1152.156 773.107 1145.531 773.199 1145.531 770.75 1138.637 770.568 1138.637 768.666 1134.104 768.756 1134.193 763.221 1138.457 763.131 1138.457 760.771 1144.896 760.592 1144.896 757.779 1151.791 757.598 1151.791 760.318 1157.598 760.047 1157.777 763.041"></polygon>
                            <polygon id="Shape" points="677.688 929.373 687.375 929.686 687.062 949.061 676.125 948.436"></polygon>
                            <polygon id="Shape" points="747.688 1078.436 745.5 1086.248 727.688 1080.623 730.812 1071.873"></polygon>
                            <path d="M985.373,710.221 L987.383,706.2 C987.383,706.2 1000.063,715.983 1010.295,724.69 C1016.592,730.049 1020.264,736.129 1017.529,741.038 C1014.945,745.681 1010.965,748.14 995.422,741.976 C983.692,737.326 973.85,732.732 973.85,732.732 L976.262,728.711 C976.262,728.711 989.657,735.094 999.844,739.432 C1006.141,742.112 1011.24,742.87 1013.375,738.762 C1015.119,735.412 1012.566,731.766 1007.748,727.774 C998.371,720 985.373,710.221 985.373,710.221 Z" id="Shape"></path>
                            <polygon id="Shape" points="975.322 738.492 982.021 741.572 975.59 754.168 968.758 751.221"></polygon>
                            <polygon id="Shape" points="1033.477 742.779 1040.711 742.379 1040.441 756.311 1035.619 756.045"></polygon>
                            <polygon id="Shape" points="1068.156 739.373 1045.656 740.623 1045.812 750.467 1043.312 750.467 1043.625 756.404 1045.969 756.404 1047.375 757.811 1047.844 766.717 1059.25 766.248 1059.25 769.686 1069.562 768.904"></polygon>
                            <polygon id="Shape" points="807.914 714.84 803.117 725.627 784.176 717.236 788.732 706.688"></polygon>
                            <polygon id="Shape" points="791.129 732.104 793.527 736.42 782.496 742.412 775.543 738.816 781.537 724.43 787.293 727.066 782.979 735.459"></polygon>
                            <polygon id="Shape" points="657.299 927.674 655.576 948.941 589.766 936.01 593.789 914.455"></polygon>
                            <polygon id="Shape" points="664.719 732.799 663.914 734.93 659.176 733.178 659.934 731.33 655.814 729.91 657.377 724.938 670.543 729.059 668.791 734.123"></polygon>
                            <polygon id="Shape" points="750.652 736.537 750.068 737.803 746.172 736.1 747.973 732.105 741.934 729.428 736.186 742.236 742.227 744.768 744.516 739.605 748.217 741.213 747.631 742.674 745.928 741.943 744.758 744.623 748.273 746.248 753.867 734.734 750.264 733.127 748.996 735.855"></polygon>
                            <polygon id="Shape" points="851.635 1130.307 850.961 1134.355 858.949 1135.705 859.514 1131.543"></polygon>
                            <polygon id="Shape" points="839.484 1134.139 848 1135.467 845.305 1151.287 836.984 1149.998"></polygon>
                            <polygon id="Shape" points="838.625 1164.061 845.734 1165.154 844.211 1174.803 836.984 1173.631"></polygon>
                            <polygon id="Shape" points="825.5 1153.982 811.047 1151.873 810.344 1158.279 816.125 1158.904 815.5 1164.061 809.562 1163.514 808.312 1168.436 814.094 1169.92 812.688 1175.232 821.32 1176.287"></polygon>
                            <polygon id="Shape" points="941.699 1103.299 939.604 1112.332 947.197 1114.295 946.805 1117.697 954.527 1118.746 955.312 1115.867 959.502 1116.521 958.715 1119.531 965.654 1120.84 966.439 1117.568 972.854 1118.484 974.426 1110.236"></polygon>
                            <polygon id="Shape" points="952.695 1131.182 951.779 1135.111 969.582 1138.906 970.236 1135.504"></polygon>
                            <polygon id="Shape" points="950.992 1127.125 950.6 1130.92 938.164 1128.959 938.818 1124.898"></polygon>
                            <polygon id="Shape" points="974.033 1085.627 982.279 1086.936 980.578 1097.801 976.52 1097.014 977.568 1090.602 972.984 1089.686"></polygon>
                            <polygon id="Shape" points="983.457 1127.646 985.684 1127.91 991.182 1087.592 983.588 1086.412 982.934 1090.994 987.648 1091.834 988.172 1089.031 989.219 1089.16"></polygon>
                            <polygon id="Shape" points="741.008 1137.303 749.41 1141.326 755.891 1128.084 747.57 1124.764"></polygon>
                            <polygon id="Shape" points="720.166 1148.484 708.508 1143.369 711.576 1136.826 731.416 1144.188 707.895 1188.771 688.877 1180.797 692.354 1174.049 704.828 1179.16"></polygon>
                            <polygon id="Shape" points="697.465 1138.258 694.193 1136.826 686.625 1151.143 684.58 1149.916 679.262 1160.756 688.059 1164.232 683.354 1174.049 681.104 1172.82 678.445 1177.729 663.311 1171.186 652.268 1192.658 665.355 1197.158 662.902 1206.973 647.357 1203.295 647.973 1199.611 638.361 1197.566 657.379 1162.391 670.061 1167.299 690.512 1127.828 704.623 1133.963 698.896 1146.643 694.807 1143.984"></polygon>
                            <polygon id="Shape" points="652.062 1312.865 662.668 1313.771 661.387 1329.844 658.693 1329.678 658.373 1333.018 653.127 1332.541 653.418 1329.219 650.605 1328.906"></polygon>
                            <path d="M651.143,1365.373 L650.555,1370.369 L647.541,1370.076 L649.672,1348.328 L646.955,1347.887 L647.982,1338.26 L636.375,1337.158 L634.977,1351.928 L628.217,1351.192 L627.555,1359.495 L624.325,1359.276 L623.663,1365.667 L626.821,1366.036 L626.36,1370.429 L622.454,1369.96 L622.102,1373.437 L657.727,1378.046 L658.784,1365.888 L651.143,1365.373 Z M641.037,1348.209 L636.433,1347.807 L636.917,1342.252 L641.522,1342.656 L641.037,1348.209 Z" id="Shape"></path>
                            <polygon id="Shape" points="642.463 1274.982 655.754 1275.084 654.143 1300.205 639.945 1300.508 640.752 1292.754 648.154 1292.807 649.16 1279.312 642.111 1279.061"></polygon>
                            <polygon id="Shape" points="750.656 1299.568 765.461 1299.998 764.406 1310.115 749.523 1309.725"></polygon>
                            <polygon id="Shape" points="886.154 1319.463 899.971 1319.869 897.939 1336.381 884.477 1335.566"></polygon>
                            <circle id="Oval" cx="878.296" cy="733.322" r="2.095"></circle>
                            <path d="M983.199,689.42 C984.449,689.979 985.945,689.361 986.527,688.045 C987.117,686.729 986.576,685.211 985.332,684.65 C984.082,684.097 982.59,684.714 982.002,686.035 C981.891,686.289 981.82,686.543 981.787,686.805 L959.379,681.338 L961.076,676.422 L953.765,674.141 L952,679.229 L949.387,678.319 L949.883,676.923 L947.387,675.812 L946.727,677.105 L935.731,670.812 L936.377,667.146 L930.033,665.316 L928.265,668.722 L905.15,661.31 C905.365,659.785 904.519,658.22 902.976,657.529 C901.124,656.715 898.992,657.465 898.206,659.217 C897.577,660.621 898.009,662.242 899.155,663.254 L890.171,683.512 L884.726,695.789 C884.414,695.506 884.05,695.264 883.644,695.082 C881.605,694.176 879.22,695.09 878.316,697.117 C877.406,699.152 878.32,701.541 880.367,702.449 C881.988,703.174 883.836,702.732 884.976,701.488 L898.863,707.646 L899.336,707.83 C899.209,707.986 899.096,708.152 899.006,708.35 C898.51,709.461 899.018,710.76 900.125,711.25 C901.238,711.742 902.539,711.246 903.031,710.141 C903.152,709.875 903.211,709.6 903.219,709.329 L919.289,715.997 C919.279,716.015 919.268,716.032 919.254,716.052 C918.762,717.169 919.262,718.466 920.375,718.964 C921.486,719.456 922.787,718.958 923.277,717.845 C923.41,717.568 923.468,717.267 923.47,716.978 L923.759,717.05 L923.993,717.107 L942.872,726.742 L942.46,728.769 L965.126,739.863 L970.216,729.549 L961.361,725.611 L972.131,700.332 L977.332,701.41 L978.021,699.262 L984.316,702.309 L986.421,697.577 L980.042,694.729 L982.858,689.233 C982.965,689.299 983.078,689.371 983.199,689.42 Z M976.77,698.004 L963.102,695.537 L950.805,723.183 L945.52,720.828 L944.848,722.34 L896.369,700.742 L898.605,695.717 L900.871,696.727 L903.447,690.954 L901.187,689.948 L902.132,687.813 L905.04,689.112 L909.452,679.174 L908.804,678.889 L911.046,673.873 L908.782,672.859 L909.788,670.601 L912.688,672.861 L914.534,672.115 L947.585,684.424 L946.804,686.18 L976.351,694.205 L975.902,695.205 L977.648,695.994 L976.77,698.004 Z" id="Shape"></path>
                        </g>
                        <g id="Straßen-_und_Platzberandungen" transform="translate(0.000000, 59.000000)" stroke="#E7511F" stroke-width="0.25">
                            <polyline id="Shape" points="643.09 733.812 647.406 718.709 702.246 736.225 694.566 750.061 643.09 733.812"></polyline>
                            <polygon id="Shape" points="776.297 743.111 770.59 754.953 743.252 743.166 749.012 730.357"></polygon>
                            <polyline id="Shape" points="775.195 1284.162 789.168 1284.959 776.461 1396.416 747.422 1391.818"></polyline>
                            <path d="M762.07,1394.162 L773.086,1295.92" id="Shape"></path>
                            <path d="M868.477,1332.17 L866.758,1345.725" id="Shape"></path>
                            <polygon id="Shape" points="817.502 1236 708.336 1214.541 754.543 1125.723 823.555 1153.693 832.422 1155.021"></polygon>
                            <polygon id="Shape" points="847.92 1228.357 832.404 1225.898 840.59 1174.119 856.104 1176.576"></polygon>
                            <polygon id="Shape" points="847.293 1129.748 934.582 1141.83 944.375 1145.58 967.707 1149.33 937.344 1241.311 831.457 1230.998"></polygon>
                            <polyline id="Shape" points="852.305 1152.209 942.918 1165.584 927.773 1240.256"></polyline>
                            <g id="Group" transform="translate(762.000000, 1137.000000)">
                                <path d="M20.5,0.248 L19.942,2.685" id="Shape"></path>
                                <path d="M18.824,7.568 L1.499,83.26" id="Shape" stroke-dasharray="5.0096,5.0096"></path>
                                <path d="M0.94,85.702 L0.383,88.139" id="Shape"></path>
                            </g>
                            <g id="Group" transform="translate(772.000000, 1140.000000)">
                                <path d="M19.562,0.686 L19.029,3.128" id="Shape"></path>
                                <path d="M17.989,7.896 L1.865,81.797" id="Shape" stroke-dasharray="4.88,4.88"></path>
                                <path d="M1.346,84.181 L0.812,86.623" id="Shape"></path>
                            </g>
                            <polyline id="Shape" stroke-dasharray="5" points="844.277 1151.244 896.496 1180.1 904.93 1137.734"></polyline>
                            <polyline id="Shape" stroke-dasharray="5" points="843.057 1158.662 894.668 1187.922 884.711 1235.977"></polyline>
                            <polyline id="Shape" stroke-dasharray="5" points="913.973 1138.85 904.93 1184.875 939.676 1205.295 959.377 1149.229 959.18 1147.99"></polyline>
                            <polyline id="Shape" stroke-dasharray="5" points="894.375 1236.936 903.125 1192.873 936.406 1212.561 941.094 1217.248 956.406 1237.248"></polyline>
                            <path d="M966.25,1238.029 L951.875,1216.936" id="Shape" stroke-dasharray="5"></path>
                            <polyline id="Shape" points="779.688 1135.885 770.664 1156.348 819.807 1176.094"></polyline>
                            <path d="M1084.879,915.898 C1084.879,915.898 1135.996,916.302 1153.016,917.431 C1169.168,918.499 1249.705,932.454 1281.721,938.638 C1361.875,954.122 1424.397,980.361 1470.625,998.079 C1489.375,1005.267 1501.844,1010.968 1512.293,1009.954 C1523.023,1008.915 1522.512,1005.911 1531.123,1008.501" id="Shape"></path>
                            <path d="M819.111,1028.42 L814.148,1048.848" id="Shape"></path>
                            <path d="M1138.336,1180.998 L1251.057,1216.096" id="Shape"></path>
                            <path d="M1138.789,1150.061 L1141.875,1140.686" id="Shape"></path>
                            <path d="M1062.496,1070.977 L1145.322,1071.256 C1145.322,1071.256 1132.187,1063.967 1126.797,1060.842 C1124.981,1059.789 1120.742,1057.873 1118.512,1054.535 C1116.981,1052.246 1115.778,1045.107 1115.778,1045.107 L1057.784,1050.388 L1057.784,1055.949" id="Shape"></path>
                            <path d="M1121.25,1046.205 C1121.25,1046.205 1121.605,1051.287 1122.5,1052.666 C1123.496,1054.205 1126.996,1055.84 1128.543,1056.83 C1133.16,1059.791 1142.691,1065.254 1147.188,1068.392 C1154.153,1073.255 1173.958,1089.33 1173.958,1089.33" id="Shape"></path>
                            <path d="M779.922,1125.004 L833.176,1148.613 L835.655,1127.248 C835.655,1127.248 818.083,1124.693 812.432,1124.541 C804.072,1124.314 779.922,1125.004 779.922,1125.004 Z" id="Shape"></path>
                            <path d="M320.816,1333.041 C320.816,1333.041 326.546,1348.674 328.849,1353.713 C336.816,1371.158 333.242,1366.522 337.556,1376.508 C340.564,1383.475 350.536,1395.506 372.638,1409.572 C394.462,1423.463 438.077,1451.543 460.081,1465.947 C470.692,1472.892 480.026,1481.144 505.21,1489.115 C520.425,1493.931 534.007,1498.398 568.483,1497.551 C579.942,1497.27 602.077,1495.865 613.475,1496.026 C618.711,1496.098 629.305,1497.983 634.209,1499.825 C638.252,1501.343 651.629,1507.026 658.113,1507.581 C684.076,1509.798 769.558,1513.755 769.558,1513.755" id="Shape"></path>
                            <path d="M874.453,733.967 L871.664,732.805 L870.234,735.842 L877.812,739.592 L879.812,735.533 C879.812,735.533 879.582,734.719 879.582,734.33 C879.582,733.832 879.646,733.351 879.768,732.892 L875.86,731.232 L874.453,733.967 Z M881.039,730.549 C882.07,729.416 883.555,728.705 885.207,728.705 C888.316,728.705 890.832,731.223 890.832,734.33 C890.832,736.387 889.73,738.184 888.088,739.164 L885.977,743.537 L893.332,747.248 L903.125,729.955 L878.125,719.541 L875.934,724.043 L878.829,725.295 L877.059,728.893 L881.039,730.549 Z" id="Shape"></path>
                            <g id="Schloss_Grünanlagen" transform="translate(879.000000, 664.000000)">
                                <path d="M71.881,62.145 L57.797,56.813 L57.602,56.92 C57.602,56.92 57.082,57.977 57.29,58.248 C60.376,62.312 70.415,71.686 70.415,71.686 L88.149,79.342 L90.301,74.358 L70.164,65.883 L71.881,62.145 Z" id="Shape"></path>
                                <path d="M51.277,54.842 C50.787,55.955 49.486,56.453 48.375,55.961 C47.262,55.463 46.762,54.166 47.254,53.049 C47.268,53.029 47.279,53.012 47.289,52.994 L31.219,46.326 C31.211,46.597 31.153,46.873 31.031,47.138 C30.539,48.243 29.238,48.74 28.125,48.247 C27.018,47.757 26.51,46.458 27.006,45.347 C27.096,45.15 27.209,44.984 27.336,44.827 L26.863,44.643 L12.976,38.485 C11.835,39.729 9.988,40.171 8.367,39.446 C6.32,38.538 5.406,36.149 6.316,34.114 C7.22,32.087 9.605,31.173 11.644,32.079 C12.05,32.261 12.414,32.503 12.726,32.786 L18.171,20.509 C16.917,19.402 15.648,18.372 14.855,17.728 C13.21,16.392 12.972,16.833 11.105,20.646 C8.457,26.052 3.029,36.72 0.582,42.312 C-0.875,45.646 2.064,48.402 3.812,49.083 C8.082,50.749 21.937,56.478 21.937,56.478 L23.968,51.841 L61.116,68.091 C61.116,68.091 61.389,66.724 60.686,65.749 C59.627,64.28 54.477,57.579 51.758,54.046 L51.469,53.974 C51.469,54.264 51.41,54.564 51.277,54.842 Z" id="Shape"></path>
                            </g>
                            <path d="M725.734,850.861 L731.672,855.193" id="Shape"></path>
                            <path d="M989.266,1141.633 L1046.57,1142.291" id="Shape" stroke-dasharray="5"></path>
                            <path d="M989.182,1147.074 L1047.119,1147.615" id="Shape" stroke-dasharray="5"></path>
                        </g>
                        <g id="Bildrahmen" transform="translate(0.000000, 59.000000)" fill-rule="nonzero" fill="#000000">
                            <path d="M1922.094,1.885 L1922.094,1530.385 L1.25,1530.385 L1.25,1.885 L1922.094,1.885 L1922.094,1.885 Z M1923.344,0.635 L1922.094,0.635 L1.25,0.635 L0,0.635 L0,1.885 L0,1530.385 L0,1531.635 L1.25,1531.635 L1922.094,1531.635 L1923.344,1531.635 L1923.344,1530.385 L1923.344,1.885 L1923.344,0.635 L1923.344,0.635 Z" id="Shape"></path>
                        </g>
                    </g>
                </g>
            </g>
        </g>
    </g>
</svg>