<svg xmlns="http://www.w3.org/2000/svg" version="1.0" width="100%" height="100%" viewBox="0 0 2000 2000.000000" preserveAspectRatio="xMidYMid meet">
    <metadata>
        Created by potrace 1.14, written by Peter Selinger 2001-2017
    </metadata>
    <g transform="translate(0.000000,2000.000000) scale(0.100000,-0.100000)" fill="#000000" stroke="none">
        <path d="M5974 17943 c-335 -752 -797 -2007 -1084 -2943 -536 -1749 -818 -3218 -881 -4585 -18 -391 -3 -1294 31 -1820 75 -1178 248 -1989 507 -2383 51 -78 143 -169 195 -192 42 -19 105 -20 5258 -20 5153 0 5216 1 5258 20 52 23 144 114 195 192 259 394 432 1205 507 2383 34 526 49 1429 31 1820 -41 896 -172 1805 -411 2845 -327 1426 -886 3126 -1495 4545 l-81 190 -4002 3 -4002 2 -26 -57z m2826 -4943 l0 -3000 -1800 0 -1800 0 0 148 c0 165 15 555 30 797 77 1206 298 2407 665 3619 115 381 334 1009 465 1336 12 30 26 65 31 78 l9 22 1200 0 1200 0 0 -3000z m4826 2935 c126 -309 361 -980 479 -1371 367 -1210 590 -2423 665 -3619 16 -254 30 -631 30 -797 l0 -148 -1800 0 -1800 0 0 3000 0 3000 1201 -2 1201 -3 24 -60z m-5626 -7735 l0 -600 -1200 0 -1200 0 0 600 0 600 1200 0 1200 0 0 -600z m6400 0 l0 -600 -1200 0 -1200 0 0 600 0 600 1200 0 1200 0 0 -600z M6767 5558 c-19 -24 -643 -826 -1387 -1783 -744 -957 -1359 -1748 -1368 -1758 -14 -16 32 -17 988 -15 l1002 3 990 1780 c544 979 993 1788 999 1798 9 16 -22 17 -590 17 l-600 0 -34 -42z M12014 5573 c8 -16 458 -824 999 -1798 l984 -1770 1001 -3 1002 -2 -1401 1800 -1400 1800 -600 0 -600 0 15 -27z"/>


    </g>
</svg>
