<?xml version="1.0" encoding="iso-8859-1"?>
<!-- Generator: Adobe Illustrator 19.0.0, SVG Export Plug-In . SVG Version: 6.00 Build 0)  -->
<svg version="1.1" id="Capa_1" xmlns="http://www.w3.org/2000/svg" xmlns:xlink="http://www.w3.org/1999/xlink" x="0px" y="0px"
	 viewBox="0 0 512 512" style="enable-background:new 0 0 512 512;" xml:space="preserve">
<path style="fill:#D7F7FF;" d="M132.289,288.117c0,0-30.584-6.839-38.823,23.013c0,0-41.597,0.93-41.597,40
	c0,0-38.516-3.736-44.369,41.86h124.789V288.117z"/>
<g style="opacity:0.1;">
	<path style="fill:#1B003F;" d="M42.833,376.07c6.855-4.29,14.164-4.753,16.988-4.753c0.764,0,1.204,0.035,1.208,0.035
		c0.322,0.031,0.643,0.046,0.962,0.046c2.467,0,4.835-0.921,6.684-2.599c2.088-1.896,3.238-4.588,3.238-7.408
		c0-12.243,4.976-20.642,15.213-25.679c8.188-4.028,16.525-4.322,16.607-4.324c4.414-0.099,8.241-3.081,9.416-7.337
		c1.057-3.829,4.161-15.066,19.139-16.247v-19.687c0,0-30.584-6.839-38.823,23.013c0,0-41.597,0.93-41.597,40
		c0,0-38.516-3.736-44.369,41.86h22.6C32.762,385.384,37.018,379.709,42.833,376.07z"/>
</g>
<path style="fill:#3A5792;" d="M167.367,332.251h-27.579v-15.245h27.579v-15h-27.579v-28.708c0-4.142-3.358-7.5-7.5-7.5
	s-7.5,3.358-7.5,7.5V385.49H7.5c-4.142,0-7.5,3.358-7.5,7.5s3.358,7.5,7.5,7.5h124.789c4.142,0,7.5-3.358,7.5-7.5v-45.739h27.579
	L167.367,332.251L167.367,332.251z"/>
<rect x="353" y="275.911" style="fill:#FB8276;" width="110" height="80.02"/>
<rect x="353" y="296.121" style="fill:#EF5050;" width="110" height="59.805"/>
<path style="fill:#C1262C;" d="M504.5,350.931c0,2.75-2.25,5-5,5h-36.909c-2.75,0-5-2.25-5-5v-89.813c0-2.75,2.25-5,5-5H499.5
	c2.75,0,5,2.25,5,5V350.931z"/>
<g style="opacity:0.1;">
	<path style="fill:#1B003F;" d="M478.091,350.931v-89.813c0-2.75,2.25-5,5-5h-20.5c-2.75,0-5,2.25-5,5v89.813c0,2.75,2.25,5,5,5
		h20.5C480.341,355.931,478.091,353.681,478.091,350.931z"/>
</g>
<path style="fill:#C1262C;" d="M353.403,151.048H225.094c-2.75,0-5.948,2.04-7.107,4.534L166.878,265.54
	c-1.159,2.494-2.107,6.784-2.107,9.534v75.856c0,2.75,2.25,5,5,5h188.633V156.048C358.403,153.298,356.153,151.048,353.403,151.048z
	"/>
<ellipse style="fill:#3A5792;" cx="271.51" cy="367.171" rx="48.708" ry="49.02"/>
<ellipse style="fill:#86A9BF;" cx="271.51" cy="367.171" rx="21.08" ry="21.21"/>
<ellipse style="fill:#3A5792;" cx="430.5" cy="367.171" rx="48.708" ry="49.02"/>
<ellipse style="fill:#86A9BF;" cx="430.5" cy="367.171" rx="21.08" ry="21.21"/>
<path style="fill:#FFC554;" d="M164.77,335.026h23.236c2.666,0,4.847-2.196,4.847-4.879v-32.195c0-2.683-2.181-4.878-4.847-4.878
	H164.77V335.026z"/>
<path style="fill:#EF5050;" d="M327.147,301.966h-14.542c-4.142,0-7.5-3.358-7.5-7.5s3.358-7.5,7.5-7.5h14.542
	c4.142,0,7.5,3.358,7.5,7.5S331.289,301.966,327.147,301.966z"/>
<g>
	<path style="fill:#D7F7FF;" d="M504.5,423.686H7.5c-4.142,0-7.5-3.358-7.5-7.5s3.358-7.5,7.5-7.5h497c4.142,0,7.5,3.358,7.5,7.5
		C512,420.329,508.642,423.686,504.5,423.686z"/>
	<path style="fill:#D7F7FF;" d="M221.687,132.251h136.672c6.386,0,11.564,5.211,11.564,11.639c0,6.427-5.178,11.638-11.564,11.638
		h-23.661c-3.24,7.435-10.607,12.632-19.189,12.632s-15.949-5.197-19.189-12.632h-4.772c-2.863,4.071-7.569,6.737-12.902,6.737
		s-10.039-2.666-12.901-6.737h-44.057c-6.387,0-11.564-5.211-11.564-11.638C210.123,137.462,215.3,132.251,221.687,132.251z"/>
</g>
<g style="opacity:0.1;">
	<path style="fill:#1B003F;" d="M241.199,143.89c0-6.428,5.178-11.639,11.564-11.639h-31.077c-6.387,0-11.564,5.211-11.564,11.639
		c0,6.427,5.178,11.638,11.564,11.638h31.077C246.377,155.527,241.199,150.316,241.199,143.89z"/>
</g>
<g>
	<ellipse style="fill:#D7F7FF;" cx="100.49" cy="230.191" rx="15.852" ry="15.877"/>
	<ellipse style="fill:#D7F7FF;" cx="143.34" cy="104.191" rx="15.852" ry="15.877"/>
</g>
<g>
	<ellipse style="fill:#E2EEFD;" cx="26.2" cy="294.311" rx="15.852" ry="15.877"/>
	<ellipse style="fill:#E2EEFD;" cx="42.34" cy="161.191" rx="15.852" ry="15.877"/>
</g>
<g>
	<path style="fill:#FFC554;" d="M299.876,176.738c-1.65,0-3,1.35-3,3v88.454c0,1.65,1.35,3,3,3h31.771c1.65,0,3-1.35,3-3v-88.454
		c0-1.65-1.35-3-3-3H299.876z"/>
	<path style="fill:#FFC554;" d="M235.811,176.738c-1.65,0-3.569,1.224-4.265,2.721l-41.373,89.013
		c-0.696,1.497,0.086,2.721,1.735,2.721h77.436c1.65,0,3-1.35,3-3v-88.454c0-1.65-1.35-3-3-3h-33.533V176.738z"/>
</g>
<g style="opacity:0.1;">
	<path style="fill:#1B003F;" d="M210.829,268.472l41.373-89.013c0.696-1.497,2.615-2.721,4.265-2.721h-20.655
		c-1.65,0-3.569,1.224-4.265,2.721l-41.373,89.013c-0.696,1.497,0.086,2.721,1.735,2.721h20.655
		C210.914,271.192,210.133,269.968,210.829,268.472z"/>
</g>
<g>
</g>
<g>
</g>
<g>
</g>
<g>
</g>
<g>
</g>
<g>
</g>
<g>
</g>
<g>
</g>
<g>
</g>
<g>
</g>
<g>
</g>
<g>
</g>
<g>
</g>
<g>
</g>
<g>
</g>
</svg>
